<?xml version='1.0' encoding='UTF-8' standalone='no'?>
<svg width="296.926mm" version="1.2" xmlns="http://www.w3.org/2000/svg" height="209.973mm" viewBox="0 0 3507 2480" xmlns:xlink="http://www.w3.org/1999/xlink" baseProfile="tiny" xmlns:inkscape="http://www.inkscape.org/namespaces/inkscape">
 <defs/>
 <g fill="none" inkscape:label="Layer 1" inkscape:groupmode="layer" stroke="black" fill-rule="evenodd" stroke-linejoin="bevel" stroke-linecap="square" id="Layer 1" stroke-width="1">
  <g stroke-opacity="1" fill="none" font-family="MS Shell Dlg 2" stroke="#000000" stroke-linejoin="bevel" font-style="normal" stroke-linecap="square" font-weight="400" stroke-width="1" transform="matrix(1,0,0,1,0,0)" font-size="34.375"/>
  <g stroke-opacity="1" fill="none" font-family="MS Shell Dlg 2" stroke="#000000" stroke-linejoin="bevel" font-style="normal" stroke-linecap="square" font-weight="400" stroke-width="1" transform="matrix(11.8081,0,0,11.8081,0,0)" font-size="34.375"/>
  <g fill="#ffffff" font-family="MS Shell Dlg 2" stroke="none" font-style="normal" fill-opacity="1" font-weight="400" transform="matrix(0.999751,0,0,0.999751,0,0)" font-size="34.375">
   <path fill-rule="evenodd" vector-effect="none" d="M-1,-1 L3508.87,-1 L3508.87,2481.31 L-1,2481.31 L-1,-1"/>
  </g>
  <g stroke-opacity="1" fill="none" font-family="MS Shell Dlg 2" stroke="#000000" stroke-linejoin="bevel" font-style="normal" stroke-linecap="square" font-weight="400" stroke-width="1" transform="matrix(11.8081,0,0,11.8081,0,0)" font-size="34.375"/>
  <g stroke-opacity="1" fill="none" font-family="MS Shell Dlg 2" stroke="#000000" stroke-linejoin="bevel" font-style="normal" stroke-linecap="square" font-weight="400" stroke-width="1" transform="matrix(11.8081,0,0,11.8081,0,0)" font-size="34.375"/>
  <g stroke-opacity="1" fill="none" font-family="MS Shell Dlg 2" stroke="#000000" stroke-linejoin="bevel" font-style="normal" stroke-linecap="square" font-weight="400" stroke-width="1" transform="matrix(11.8081,0,0,11.8081,0,0)" font-size="34.375"/>
  <g stroke-opacity="1" fill="none" font-family="MS Shell Dlg 2" stroke="#000000" stroke-linejoin="bevel" font-style="normal" stroke-linecap="square" font-weight="400" stroke-width="1" transform="matrix(11.8081,0,0,11.8081,0,0)" font-size="34.375"/>
  <g stroke-opacity="1" fill="none" font-family="MS Shell Dlg 2" stroke="#000000" stroke-linejoin="bevel" font-style="normal" stroke-linecap="square" font-weight="400" stroke-width="1" transform="matrix(1,0,0,1,0,0)" font-size="34.375"/>
 </g>
 <defs/>
 <g fill="none" inkscape:label="Layer 2" inkscape:groupmode="layer" stroke="black" fill-rule="evenodd" stroke-linejoin="bevel" stroke-linecap="square" id="Layer 2" stroke-width="1">
  <g stroke-opacity="1" fill="none" font-family="MS Shell Dlg 2" stroke="#000000" stroke-linejoin="bevel" font-style="normal" stroke-linecap="square" font-weight="400" stroke-width="1" transform="matrix(1,0,0,1,0,0)" font-size="34.375"/>
  <g stroke-opacity="1" fill="none" font-family="MS Shell Dlg 2" stroke="#000000" stroke-linejoin="bevel" font-style="normal" stroke-linecap="square" font-weight="400" stroke-width="1" transform="matrix(11.8081,0,0,11.8081,0,0)" font-size="34.375"/>
  <g stroke-opacity="1" fill="none" font-family="MS Shell Dlg 2" stroke="#000000" stroke-linejoin="bevel" font-style="normal" stroke-linecap="square" font-weight="400" stroke-width="1" transform="matrix(11.8081,0,0,11.8081,0,0)" font-size="34.375"/>
  <g fill="#ffffff" font-family="MS Shell Dlg 2" stroke="none" font-style="normal" fill-opacity="1" font-weight="400" transform="matrix(11.8081,0,0,11.8081,0,0)" font-size="34.375">
   <path fill-rule="evenodd" vector-effect="non-scaling-stroke" d="M0,0 L297,0 L297,210 L0,210 L0,0"/>
  </g>
  <g stroke-opacity="1" fill="none" font-family="MS Shell Dlg 2" stroke="#000000" stroke-linejoin="bevel" font-style="normal" stroke-linecap="square" font-weight="400" stroke-width="1" transform="matrix(11.8081,0,0,11.8081,0,0)" font-size="34.375"/>
  <g fill="#000000" font-family="MS Shell Dlg 2" stroke="none" font-style="normal" fill-opacity="0" font-weight="400" transform="matrix(0.999751,0,0,0.999751,0,0)" font-size="34.375">
   <path fill-rule="evenodd" vector-effect="non-scaling-stroke" d="M0,0 L3508,0 L3508,2480 L0,2480 L0,0"/>
  </g>
  <g stroke-opacity="1" fill="none" font-family="MS Shell Dlg 2" stroke="#000000" stroke-linejoin="bevel" font-style="normal" stroke-linecap="square" font-weight="400" stroke-width="1" transform="matrix(11.8081,0,0,11.8081,0,0)" font-size="34.375"/>
  <g stroke-opacity="1" fill="none" font-family="MS Shell Dlg 2" stroke="#000000" stroke-linejoin="bevel" font-style="normal" stroke-linecap="square" font-weight="400" stroke-width="1" transform="matrix(11.8081,0,0,11.8081,0,0)" font-size="34.375"/>
  <g stroke-opacity="1" fill="none" font-family="MS Shell Dlg 2" stroke="#000000" stroke-linejoin="bevel" font-style="normal" stroke-linecap="square" font-weight="400" stroke-width="1" transform="matrix(11.8081,0,0,11.8081,0,0)" font-size="34.375"/>
  <g stroke-opacity="1" fill="none" font-family="MS Shell Dlg 2" stroke="#000000" stroke-linejoin="bevel" font-style="normal" stroke-linecap="square" font-weight="400" stroke-width="1" transform="matrix(1,0,0,1,0,0)" font-size="34.375"/>
  <g stroke-opacity="1" fill="none" font-family="MS Shell Dlg 2" stroke="#000000" stroke-linejoin="bevel" font-style="normal" stroke-linecap="square" font-weight="400" stroke-width="1" transform="matrix(11.8081,0,0,11.8081,0,0)" font-size="34.375"/>
  <g stroke-opacity="1" fill="none" font-family="MS Shell Dlg 2" stroke="#000000" stroke-linejoin="bevel" font-style="normal" stroke-linecap="square" font-weight="400" stroke-width="1" transform="matrix(11.8081,0,0,11.8081,0,0)" font-size="34.375"/>
  <g stroke-opacity="1" fill="none" font-family="MS Shell Dlg 2" stroke="#000000" stroke-linejoin="bevel" font-style="normal" stroke-linecap="square" font-weight="400" stroke-width="1" transform="matrix(11.8081,0,0,11.8081,0,0)" font-size="34.375"/>
  <g stroke-opacity="1" fill="none" font-family="MS Shell Dlg 2" stroke="#000000" stroke-linejoin="bevel" font-style="normal" stroke-linecap="square" font-weight="400" stroke-width="1" transform="matrix(11.8081,0,0,11.8081,0,0)" font-size="34.375"/>
  <g stroke-opacity="1" fill="none" font-family="MS Shell Dlg 2" stroke="#000000" stroke-linejoin="bevel" font-style="normal" stroke-linecap="square" font-weight="400" stroke-width="1" transform="matrix(1,0,0,1,0,0)" font-size="34.375"/>
 </g>
 <defs/>
 <g fill="none" inkscape:label="Layer 3" inkscape:groupmode="layer" stroke="black" fill-rule="evenodd" stroke-linejoin="bevel" stroke-linecap="square" id="Layer 3" stroke-width="1">
  <g stroke-opacity="1" fill="none" font-family="MS Shell Dlg 2" stroke="#000000" stroke-linejoin="bevel" font-style="normal" stroke-linecap="square" font-weight="400" stroke-width="1" transform="matrix(1,0,0,1,0,0)" font-size="34.375"/>
  <g stroke-opacity="1" fill="none" font-family="MS Shell Dlg 2" stroke="#000000" stroke-linejoin="bevel" font-style="normal" stroke-linecap="square" font-weight="400" stroke-width="1" transform="matrix(11.8081,0,0,11.8081,0,0)" font-size="34.375"/>
  <g stroke-opacity="1" fill="none" font-family="MS Shell Dlg 2" stroke="#000000" stroke-linejoin="bevel" font-style="normal" stroke-linecap="square" font-weight="400" stroke-width="1" transform="matrix(11.8081,0,0,11.8081,0,0)" font-size="34.375"/>
  <g fill="#000000" font-family="MS Shell Dlg 2" stroke="none" font-style="normal" fill-opacity="0" font-weight="400" transform="matrix(0.999751,0,0,0.999751,0,0)" font-size="34.375">
   <path fill-rule="evenodd" vector-effect="non-scaling-stroke" d="M0,0 L3508,0 L3508,2480 L0,2480 L0,0"/>
  </g>
  <g fill="#04a9c6" font-family="MS Shell Dlg 2" stroke="none" font-style="normal" fill-opacity="1" font-weight="400" transform="matrix(0.999751,0,0,0.999751,0,0)" font-size="34.375">
   <path fill-rule="evenodd" vector-effect="none" d="M2447.95,327.468 L2447.93,326.756 L2455.06,159.924 L2455.87,151.681 L2481.78,-17.1582 L2517.21,-248 L2576.95,-248 L2540.15,-8.19998 L2514.86,156.535 L2513.88,166.593 L2507.16,323.761 L2507.35,329.988 L2447.95,327.468"/>
   <path fill-rule="evenodd" vector-effect="none" d="M1398,168.944 L1408.68,24.4091 L1428.81,-248 L1488.01,-248 L1467.56,28.7603 L1456.88,173.295 L1398,168.944"/>
   <path fill-rule="evenodd" vector-effect="none" d="M123.295,1121.93 L181.756,1113.63 L185.519,1140.13 L127.058,1148.43 L123.295,1121.93"/>
   <path fill-rule="evenodd" vector-effect="none" d="M141.709,1299.14 L200.672,1295.99 L239.663,2025.52 L180.7,2028.67 L141.709,1299.14"/>
   <path fill-rule="evenodd" vector-effect="none" d="M265.013,1237.52 L271.586,1193.73 L738.112,1263.74 L739.829,1263.98 L777.342,1268.43 L778.927,1268.59 L1090.04,1296.56 L1092.44,1296.84 L1116.41,1300.16 L1267.45,1321.09 L1261.37,1364.96 L1110.34,1344.03 L1087.55,1340.87 L1084.88,1340.56 L774.251,1312.63 L772.833,1312.49 L733.842,1307.86 L732.306,1307.65 L265.013,1237.52"/>
   <path fill-rule="evenodd" vector-effect="none" d="M1272.5,2061.29 L1324.52,1719.22 L1325.37,1711.44 L1341.83,1462.58 L1400.75,1466.48 L1384.08,1718.55 L1383.38,1724.93 L1330.87,2070.16 L1272.5,2061.29"/>
   <path fill-rule="evenodd" vector-effect="none" d="M-350.8,2082.53 L103.683,2086.59 L103.156,2145.63 L-350.8,2141.58 L-350.8,2082.53"/>
   <path fill-rule="evenodd" vector-effect="none" d="M1369.83,2145.09 L1442.09,2144.77 L1717.31,2143.56 L1756.64,2143.39 L2130.65,2141.73 L2130.91,2200.78 L1756.9,2202.43 L1717.57,2202.61 L1442.35,2203.82 L1370.09,2204.14 L1369.83,2145.09"/>
   <path fill-rule="evenodd" vector-effect="none" d="M319.297,2152.32 L322.486,2093.35 L1160.77,2138.7 L1157.58,2197.66 L319.297,2152.32"/>
   <path fill-rule="evenodd" vector-effect="none" d="M745.265,74.8786 L769.573,21.0668 L1268,246.226 L1243.7,300.037 L745.265,74.8786"/>
   <path fill-rule="evenodd" vector-effect="none" d="M59.4708,700.389 L466.87,58.2608 L579.053,129.436 L171.654,771.564 L59.4708,700.389"/>
   <path fill-rule="evenodd" vector-effect="none" d="M1687.56,386.462 L1695.42,327.94 L2343.44,414.977 L2335.58,473.499 L1687.56,386.462"/>
   <path fill-rule="evenodd" vector-effect="none" d="M1446.68,353.069 L1455.06,294.621 L1533.25,305.84 L1524.86,364.289 L1446.68,353.069"/>
   <path fill-rule="evenodd" vector-effect="none" d="M1370.55,1247.96 L1401.08,1096.77 L1403.2,1089.23 L1406.42,1082.09 L1434.54,1030.42 L1440.93,1015.79 L1444.7,1000.28 L1521.86,495.912 L1522.65,489.077 L1524.42,466.229 L1583.29,470.785 L1581.3,496.448 L1580.66,502.051 L1500.45,1026.32 L1498.31,1035.13 L1494.68,1043.44 L1465.41,1097.23 L1459.74,1109.8 L1456.01,1123.07 L1428.43,1259.65 L1370.55,1247.96"/>
   <path fill-rule="evenodd" vector-effect="none" d="M1206.27,2728 L1244.5,2297.96 L1303.31,2303.19 L1265.55,2728 L1206.27,2728"/>
   <path fill-rule="evenodd" vector-effect="none" d="M194.31,2230.66 L253.176,2226.03 L292.664,2728 L233.434,2728 L194.31,2230.66"/>
   <path fill-rule="evenodd" vector-effect="none" d="M2342.58,1744.98 L2346.61,1742.96 L2465.68,1697.04 L2470.02,1695.84 L2490.95,1750.11 L2486.93,1752.14 L2367.85,1798.05 L2363.51,1799.25 L2342.58,1744.98"/>
   <path fill-rule="evenodd" vector-effect="none" d="M2223.58,2292.35 L2282.62,2291.9 L2285.91,2728 L2226.86,2728 L2223.58,2292.35"/>
   <path fill-rule="evenodd" vector-effect="none" d="M2336.7,1590.65 L2342.85,1506.69 L2343.85,1498.79 L2389.13,1247.85 L2393.4,1224.2 L2439.17,970.527 L2465.61,824.009 L2466.97,817.905 L2488.46,737.521 L2545.5,752.772 L2524.82,830.13 L2523.16,837.575 L2497.28,981.012 L2451.51,1234.68 L2447.24,1258.33 L2402.67,1505.34 L2401.45,1514.98 L2395.59,1594.97 L2336.7,1590.65"/>
   <path fill-rule="evenodd" vector-effect="none" d="M2226.26,2052.27 L2226.96,2029.18 L2227.94,2020.54 L2230.34,2012.19 L2306.1,1812.52 L2361.31,1833.47 L2291.43,2017.63 L2287.21,2032.34 L2285.47,2047.55 L2285.28,2054.06 L2226.26,2052.27"/>
   <path fill-rule="evenodd" vector-effect="none" d="M2459.15,1892.23 L2503.43,1892.03 L2507.19,2728 L2462.9,2728 L2459.15,1892.23"/>
   <path fill-rule="evenodd" vector-effect="none" d="M2475.97,551.779 L2534.5,543.855 L2540.1,585.239 L2545.25,605.547 L2556.12,634.225 L2500.9,655.146 L2486.97,618.366 L2482.75,601.747 L2476.1,552.648 L2475.97,551.779"/>
   <path fill-rule="evenodd" vector-effect="none" d="M3344.09,572.101 L3348.97,514.141 L3353.48,514.077 L3450.07,522.212 L3454.5,523.028 L3449.62,580.988 L3445.12,581.052 L3348.52,572.917 L3344.09,572.101"/>
   <path fill-rule="evenodd" vector-effect="none" d="M3339.59,685.632 L3383.62,680.881 L3474.32,1521.29 L3430.29,1526.04 L3339.59,685.632"/>
   <path fill-rule="evenodd" vector-effect="none" d="M3433.74,-248 L3462.83,237.35 L3473.49,415.264 L3414.55,418.797 L3403.89,240.883 L3374.59,-248 L3433.74,-248"/>
   <path fill-rule="evenodd" vector-effect="none" d="M2592.77,1691.42 L2725.08,1689.06 L2728.14,1689.06 L2919.75,1693.38 L2927.09,1693.26 L3348.26,1669.19 L3351.63,1728.14 L2927.45,1752.38 L2921.43,1752.48 L2728.34,1748.13 L2724.61,1748.12 L2593.83,1750.46 L2592.77,1691.42"/>
   <path fill-rule="evenodd" vector-effect="none" d="M3467.08,1646.31 L3580.56,1605.63 L3586.89,1603.09 L3603.52,1595.7 L3627.5,1649.66 L3608.31,1658.18 L3603.12,1660.26 L3487.01,1701.9 L3467.08,1646.31"/>
   <path fill-rule="evenodd" vector-effect="none" d="M2640.05,622.649 L3035.68,561.375 L3044.72,619.727 L2649.08,681.001 L2640.05,622.649"/>
   <path fill-rule="evenodd" vector-effect="none" d="M2651.25,509.701 L2656.92,450.926 L3040.93,487.959 L3035.26,546.734 L2651.25,509.701"/>
  </g>
  <g stroke-opacity="1" fill="none" font-family="MS Shell Dlg 2" stroke="#000000" stroke-linejoin="bevel" font-style="normal" stroke-linecap="square" font-weight="400" stroke-width="1" transform="matrix(11.8081,0,0,11.8081,0,0)" font-size="34.375"/>
  <g stroke-opacity="1" fill="none" font-family="MS Shell Dlg 2" stroke="#000000" stroke-linejoin="bevel" font-style="normal" stroke-linecap="square" font-weight="400" stroke-width="1" transform="matrix(11.8081,0,0,11.8081,0,0)" font-size="34.375"/>
  <g stroke-opacity="1" fill="none" font-family="MS Shell Dlg 2" stroke="#000000" stroke-linejoin="bevel" font-style="normal" stroke-linecap="square" font-weight="400" stroke-width="1" transform="matrix(11.8081,0,0,11.8081,0,0)" font-size="34.375"/>
  <g stroke-opacity="1" fill="none" font-family="MS Shell Dlg 2" stroke="#000000" stroke-linejoin="bevel" font-style="normal" stroke-linecap="square" font-weight="400" stroke-width="1" transform="matrix(1,0,0,1,0,0)" font-size="34.375"/>
  <g stroke-opacity="1" fill="none" font-family="MS Shell Dlg 2" stroke="#000000" stroke-linejoin="bevel" font-style="normal" stroke-linecap="square" font-weight="400" stroke-width="1" transform="matrix(11.8081,0,0,11.8081,0,0)" font-size="34.375"/>
  <g stroke-opacity="1" fill="none" font-family="MS Shell Dlg 2" stroke="#000000" stroke-linejoin="bevel" font-style="normal" stroke-linecap="square" font-weight="400" stroke-width="1" transform="matrix(11.8081,0,0,11.8081,0,0)" font-size="34.375"/>
  <g stroke-opacity="1" fill="none" font-family="MS Shell Dlg 2" stroke="#000000" stroke-linejoin="bevel" font-style="normal" stroke-linecap="square" font-weight="400" stroke-width="1" transform="matrix(11.8081,0,0,11.8081,0,0)" font-size="34.375"/>
  <g stroke-opacity="1" fill="none" font-family="MS Shell Dlg 2" stroke="#000000" stroke-linejoin="bevel" font-style="normal" stroke-linecap="square" font-weight="400" stroke-width="1" transform="matrix(11.8081,0,0,11.8081,0,0)" font-size="34.375"/>
  <g stroke-opacity="1" fill="none" font-family="MS Shell Dlg 2" stroke="#000000" stroke-linejoin="bevel" font-style="normal" stroke-linecap="square" font-weight="400" stroke-width="1" transform="matrix(1,0,0,1,0,0)" font-size="34.375"/>
 </g>
 <defs/>
 <g fill="none" inkscape:label="Layer 4" inkscape:groupmode="layer" stroke="black" fill-rule="evenodd" stroke-linejoin="bevel" stroke-linecap="square" id="Layer 4" stroke-width="1">
  <g stroke-opacity="1" fill="none" font-family="MS Shell Dlg 2" stroke="#000000" stroke-linejoin="bevel" font-style="normal" stroke-linecap="square" font-weight="400" stroke-width="1" transform="matrix(1,0,0,1,0,0)" font-size="34.375"/>
  <g stroke-opacity="1" fill="none" font-family="MS Shell Dlg 2" stroke="#000000" stroke-linejoin="bevel" font-style="normal" stroke-linecap="square" font-weight="400" stroke-width="1" transform="matrix(11.8081,0,0,11.8081,0,0)" font-size="34.375"/>
  <g stroke-opacity="1" fill="none" font-family="MS Shell Dlg 2" stroke="#000000" stroke-linejoin="bevel" font-style="normal" stroke-linecap="square" font-weight="400" stroke-width="1" transform="matrix(11.8081,0,0,11.8081,0,0)" font-size="34.375"/>
  <g fill="#000000" font-family="MS Shell Dlg 2" stroke="none" font-style="normal" fill-opacity="0" font-weight="400" transform="matrix(0.999751,0,0,0.999751,0,0)" font-size="34.375">
   <path fill-rule="evenodd" vector-effect="non-scaling-stroke" d="M0,0 L3508,0 L3508,2480 L0,2480 L0,0"/>
  </g>
  <g fill="#04a9c6" font-family="MS Shell Dlg 2" stroke="none" font-style="normal" fill-opacity="1" font-weight="400" transform="matrix(0.999751,0,0,0.999751,0,0)" font-size="34.375">
   <path fill-rule="evenodd" vector-effect="none" d="M3505.74,1695.18 L3487.01,1701.9 L3467.08,1646.31 L3580.56,1605.63 L3586.89,1603.09 L3603.52,1595.7 L3618.49,1589.04 L3623.36,1587.43 L3627.92,1585.07 L3703.06,1555.19 L3724.88,1610.06 L3712.55,1614.96 L3709.46,1616.56 L3694.61,1628.4 L3682.36,1642.9 L3673.17,1659.52 L3667.4,1677.62 L3666.39,1686.58 L3669.39,1784.08 L3610.37,1785.9 L3609.74,1765.4 L3604.94,1751.18 L3595.48,1734.71 L3582.99,1720.41 L3567.94,1708.82 L3550.92,1700.39 L3532.59,1695.44 L3513.64,1694.16 L3505.74,1695.18"/>
   <path fill-rule="evenodd" vector-effect="none" d="M194.31,2230.65 L192.945,2213.3 L186.33,2196.4 L176.092,2180.41 L162.93,2166.72 L147.35,2155.86 L129.951,2148.25 L118.675,2145.77 L103.157,2145.63 L103.684,2086.59 L162.294,2087.11 L166.695,2085.82 L171.245,2083.44 L175.244,2080.22 L178.537,2076.28 L180.998,2071.77 L182.532,2066.87 L182.672,2065.57 L180.7,2028.68 L239.664,2025.52 L240.371,2038.76 L245.165,2051.98 L252.717,2064.45 L262.558,2075.22 L274.31,2083.86 L287.522,2090.04 L294.962,2091.87 L322.484,2093.35 L319.295,2152.32 L306.215,2151.61 L295.278,2154.29 L283.466,2159.81 L272.958,2167.52 L264.156,2177.13 L257.4,2188.28 L252.947,2200.53 L251.773,2208.19 L253.175,2226.02 L194.31,2230.65"/>
   <path fill-rule="evenodd" vector-effect="none" d="M1244.5,2297.96 L1246.12,2279.7 L1242.61,2262.89 L1235.17,2245.41 L1224.47,2229.72 L1210.92,2216.42 L1195.03,2206.02 L1177.41,2198.92 L1176.03,2198.66 L1157.58,2197.66 L1160.77,2138.7 L1193.61,2140.48 L1211.31,2136.13 L1228.52,2128.1 L1243.83,2116.86 L1256.65,2102.86 L1266.5,2086.62 L1270.19,2076.45 L1272.5,2061.29 L1330.87,2070.17 L1325.67,2104.4 L1326.75,2111.91 L1329.71,2120.27 L1334.24,2127.9 L1340.18,2134.5 L1347.28,2139.81 L1355.29,2143.63 L1361.19,2145.13 L1369.82,2145.09 L1370.08,2204.14 L1343.78,2204.26 L1335.52,2206.8 L1327.58,2211.09 L1320.63,2216.85 L1314.94,2223.85 L1310.72,2231.83 L1309.21,2236.89 L1303.31,2303.18 L1244.5,2297.96"/>
   <path fill-rule="evenodd" vector-effect="none" d="M141.709,1299.14 L137.85,1226.95 L137.065,1218.9 L127.058,1148.43 L123.295,1121.94 L181.756,1113.63 L183.796,1128 L184.315,1130.13 L192.328,1147.34 L203.546,1162.67 L217.538,1175.51 L233.766,1185.37 L251.488,1191.84 L261.551,1192.22 L271.584,1193.73 L265.011,1237.52 L260.501,1236.85 L248.802,1236.4 L243.666,1237.15 L232.788,1241.02 L222.874,1246.94 L214.305,1254.68 L207.411,1263.94 L202.457,1274.37 L200.031,1283.99 L200.672,1295.99 L141.709,1299.14"/>
   <path fill-rule="evenodd" vector-effect="none" d="M2148.86,2200.7 L2130.91,2200.78 L2130.65,2141.73 L2152.24,2141.64 L2169.19,2136.42 L2185.9,2127.39 L2200.52,2115.28 L2212.51,2100.55 L2221.38,2083.76 L2225.74,2069.16 L2226.26,2052.27 L2285.28,2054.07 L2281.83,2167.09 L2281.45,2170.08 L2281.5,2170.59 L2281.39,2171.74 L2281.74,2175.03 L2282.62,2291.9 L2223.58,2292.35 L2223.44,2274.31 L2218.24,2257.62 L2209.16,2240.94 L2197,2226.35 L2182.23,2214.41 L2165.42,2205.59 L2148.86,2200.7"/>
   <path fill-rule="evenodd" vector-effect="none" d="M-28.5968,1090.31 L-42.4343,1112.36 L-154.967,1041.74 L37.1162,735.666 L40.0034,731.935 L42.1281,727.723 L59.47,700.39 L171.653,771.565 L154.312,798.898 L153.592,799.819 L147.283,812.327 L142.202,830.625 L140.788,849.564 L141.438,856.102 L160.561,964.687 L160.957,967.172 L181.756,1113.63 L185.519,1140.13 L127.058,1148.43 L123.587,1123.99 L118.782,1113.67 L107.564,1098.34 L93.5717,1085.5 L77.3435,1075.64 L59.5028,1069.13 L40.7351,1066.23 L21.7618,1067.04 L3.31184,1071.54 L-13.9056,1079.56 L-28.5968,1090.31"/>
   <path fill-rule="evenodd" vector-effect="none" d="M3348.26,1669.19 L3366.68,1668.14 L3382.69,1662.26 L3398.9,1652.37 L3412.87,1639.51 L3424.06,1624.16 L3432.04,1606.93 L3436.51,1588.47 L3436.65,1585.02 L3430.29,1526.04 L3474.32,1521.29 L3476.52,1541.66 L3482.4,1555.49 L3493.09,1571.18 L3506.65,1584.49 L3522.54,1594.89 L3540.15,1601.99 L3558.81,1605.52 L3577.8,1605.35 L3585,1603.84 L3586.89,1603.09 L3603.52,1595.7 L3627.5,1649.66 L3608.31,1658.18 L3603.12,1660.26 L3487.01,1701.9 L3483.09,1703.3 L3479.28,1704.26 L3475.81,1706.09 L3441.24,1720.19 L3433,1722.78 L3424.44,1723.98 L3351.63,1728.14 L3348.26,1669.19"/>
   <path fill-rule="evenodd" vector-effect="none" d="M2319.21,1777.96 L2323.92,1760.58 L2324.75,1753.67 L2336.7,1590.65 L2395.59,1594.97 L2394.26,1613.11 L2385.85,1727.83 L2465.68,1697.04 L2470.02,1695.84 L2470.02,1695.84 L2490.95,1750.11 L2486.93,1752.14 L2408.71,1782.3 L2398.74,1787.31 L2383.77,1799 L2371.36,1813.37 L2364.01,1826.34 L2361.31,1833.46 L2306.1,1812.52 L2319.21,1777.96"/>
   <path fill-rule="evenodd" vector-effect="none" d="M2549.03,739.576 L2545.5,752.77 L2488.46,737.52 L2499.63,695.735 L2502,681.364 L2501.36,662.383 L2497.69,646.667 L2486.97,618.366 L2482.75,601.747 L2476.1,552.648 L2475.97,551.781 L2534.5,543.856 L2536.94,561.896 L2544.14,577.632 L2555.26,593.028 L2569.17,605.959 L2585.33,615.927 L2603.13,622.551 L2621.52,625.518 L2640.04,622.649 L2649.08,681.001 L2608.79,687.242 L2604,688.474 L2586.88,696.703 L2571.7,708.113 L2559.04,722.265 L2549.38,738.616 L2549.03,739.576"/>
   <path fill-rule="evenodd" vector-effect="none" d="M2366.83,1798.33 L2363.51,1799.25 L2363.51,1799.25 L2342.59,1744.98 L2346.61,1742.96 L2465.68,1697.04 L2470.02,1695.84 L2472.22,1695.23 L2474.35,1694.55 L2474.97,1694.47 L2475.56,1694.31 L2477.79,1694.14 L2484.54,1693.36 L2592.77,1691.42 L2593.83,1750.46 L2575.87,1750.78 L2559.16,1756.18 L2542.57,1765.43 L2528.11,1777.74 L2516.33,1792.63 L2507.67,1809.54 L2503.14,1825.52 L2503.43,1892.03 L2459.15,1892.22 L2459.06,1872.93 L2454.32,1857.51 L2445.32,1840.82 L2433.24,1826.21 L2418.54,1814.23 L2401.78,1805.36 L2383.62,1799.92 L2366.83,1798.33"/>
   <path fill-rule="evenodd" vector-effect="none" d="M3453.22,582.372 L3442.5,580.831 L3348.52,572.917 L3344.09,572.101 L3344.09,572.101 L3348.98,514.141 L3353.48,514.077 L3420.6,519.73 L3415.42,433.335 L3414.55,418.798 L3473.49,415.266 L3476.89,472.033 L3477.14,473.553 L3483.73,491.364 L3493.66,507.547 L3506.57,521.48 L3521.94,532.628 L3535.7,538.953 L3549.62,541.796 L3537.8,599.649 L3453.22,582.372"/>
   <path fill-rule="evenodd" vector-effect="none" d="M1341.83,1462.58 L1342.99,1445.1 L1338.91,1427.54 L1331.08,1410.24 L1320.03,1394.79 L1306.17,1381.8 L1290.05,1371.77 L1278.16,1367.28 L1261.37,1364.96 L1267.45,1321.09 L1284.88,1323.51 L1302.6,1320.7 L1320.42,1314.13 L1336.62,1304.21 L1350.57,1291.33 L1361.73,1275.97 L1367.35,1263.78 L1370.55,1247.97 L1428.43,1259.65 L1423.36,1284.77 L1408.83,1356.68 L1407.21,1368.86 L1400.75,1466.48 L1341.83,1462.58"/>
   <path fill-rule="evenodd" vector-effect="none" d="M753.281,13.707 L769.572,21.0662 L745.263,74.878 L700.46,54.6389 L682.042,52.2352 L663.093,53.4986 L644.755,58.4345 L627.732,66.8531 L612.679,78.4309 L608.075,83.6919 L579.054,129.435 L466.87,58.2595 L476.992,42.307 L481.433,26.3118 L482.846,7.37361 L480.538,-11.4764 L474.596,-29.5138 L465.25,-46.0456 L452.858,-60.4363 L445.553,-66.1473 L429.702,-73.9476 L455.773,-126.928 L493.46,-108.383 L511.401,-105.436 L530.381,-106.074 L548.872,-110.402 L566.164,-118.254 L581.591,-129.329 L589.276,-137.548 L615.468,-180.405 L728.831,-111.125 L718.913,-94.8962 L714.773,-78.9524 L713.678,-59.9932 L716.302,-41.1846 L722.546,-23.2495 L732.169,-6.87708 L744.8,7.30348 L753.281,13.707"/>
   <path fill-rule="evenodd" vector-effect="none" d="M3339.59,685.631 L3336.14,653.65 L3329.45,637.922 L3318.76,622.231 L3305.2,608.928 L3289.31,598.525 L3271.7,591.422 L3253.04,587.89 L3250.11,587.918 L3044.72,619.727 L3035.69,561.375 L3037.83,561.043 L3038.54,560.704 L3039.75,559.792 L3040.76,558.659 L3041.54,557.351 L3042.04,555.918 L3042.25,554.413 L3042.17,552.896 L3041.79,551.425 L3041.13,550.056 L3040.22,548.841 L3039.09,547.828 L3037.78,547.056 L3037.47,546.947 L3035.26,546.735 L3040.93,487.96 L3050.45,488.877 L3284.97,511.494 L3285.43,511.524 L3347.11,513.597 L3347.61,513.663 L3347.74,513.655 L3350.47,514.043 L3351,514.112 L3353.48,514.077 L3450.07,522.212 L3454.5,523.028 L3454.5,523.028 L3449.62,580.988 L3445.12,581.052 L3372.19,574.91 L3381.91,665.049 L3383.62,680.879 L3339.59,685.631"/>
   <path fill-rule="evenodd" vector-effect="none" d="M2547.94,612.644 L2556.12,634.224 L2500.9,655.144 L2486.97,618.366 L2482.75,601.747 L2476.1,552.648 L2475.97,551.779 L2475.61,549.461 L2474.72,544.212 L2466.92,527.182 L2455.81,511.787 L2441.9,498.856 L2425.73,488.887 L2411.94,483.755 L2335.58,473.499 L2343.44,414.977 L2362.03,417.474 L2378.55,414.791 L2396.35,408.148 L2412.5,398.161 L2426.39,385.216 L2437.49,369.808 L2445.38,352.53 L2448.45,339.526 L2448.26,337.747 L2447.95,327.47 L2507.35,329.99 L2507.56,337.175 L2511.87,378.85 L2511.89,378.959 L2519.24,396.47 L2529.86,412.21 L2543.36,425.576 L2559.2,436.052 L2576.65,443.185 L2656.92,450.926 L2651.25,509.701 L2629.69,507.622 L2616.02,510.369 L2598.49,517.673 L2582.72,528.255 L2569.32,541.711 L2558.8,557.523 L2551.57,575.083 L2547.9,593.716 L2547.94,612.644"/>
   <path fill-rule="evenodd" vector-effect="none" d="M1517.46,303.575 L1533.24,305.84 L1524.86,364.289 L1446.68,353.069 L1416.81,348.784 L1411.6,347.504 L1406.26,346.966 L1308.91,327.393 L1292.71,322.18 L1243.7,300.038 L1268.01,246.226 L1286.97,254.793 L1301.58,256.699 L1320.52,255.436 L1338.86,250.5 L1355.88,242.082 L1370.94,230.504 L1383.44,216.211 L1392.92,199.754 L1396.5,189.16 L1398,168.945 L1456.88,173.296 L1453.05,225.211 L1456.99,242.777 L1464.68,260.14 L1475.62,275.668 L1489.37,288.764 L1505.41,298.926 L1517.46,303.575"/>
   <path fill-rule="evenodd" vector-effect="none" d="M1526.91,433.998 L1523.04,416.445 L1515.4,399.055 L1504.53,383.489 L1490.82,370.345 L1474.81,360.127 L1462.55,355.348 L1446.68,353.07 L1455.07,294.621 L1533.25,305.84 L1563.5,310.182 L1567.8,311.237 L1572.22,311.393 L1695.42,327.94 L1687.56,386.462 L1669.23,384.001 L1652.44,386.728 L1634.65,393.371 L1618.5,403.357 L1604.6,416.303 L1593.5,431.711 L1585.62,448.988 L1584.66,453.029 L1583.29,470.783 L1524.42,466.227 L1526.91,433.998"/>
  </g>
  <g stroke-opacity="1" fill="none" font-family="MS Shell Dlg 2" stroke="#000000" stroke-linejoin="bevel" font-style="normal" stroke-linecap="square" font-weight="400" stroke-width="1" transform="matrix(11.8081,0,0,11.8081,0,0)" font-size="34.375"/>
  <g stroke-opacity="1" fill="none" font-family="MS Shell Dlg 2" stroke="#000000" stroke-linejoin="bevel" font-style="normal" stroke-linecap="square" font-weight="400" stroke-width="1" transform="matrix(11.8081,0,0,11.8081,0,0)" font-size="34.375"/>
  <g stroke-opacity="1" fill="none" font-family="MS Shell Dlg 2" stroke="#000000" stroke-linejoin="bevel" font-style="normal" stroke-linecap="square" font-weight="400" stroke-width="1" transform="matrix(11.8081,0,0,11.8081,0,0)" font-size="34.375"/>
  <g stroke-opacity="1" fill="none" font-family="MS Shell Dlg 2" stroke="#000000" stroke-linejoin="bevel" font-style="normal" stroke-linecap="square" font-weight="400" stroke-width="1" transform="matrix(1,0,0,1,0,0)" font-size="34.375"/>
  <g stroke-opacity="1" fill="none" font-family="MS Shell Dlg 2" stroke="#000000" stroke-linejoin="bevel" font-style="normal" stroke-linecap="square" font-weight="400" stroke-width="1" transform="matrix(11.8081,0,0,11.8081,0,0)" font-size="34.375"/>
  <g stroke-opacity="1" fill="none" font-family="MS Shell Dlg 2" stroke="#000000" stroke-linejoin="bevel" font-style="normal" stroke-linecap="square" font-weight="400" stroke-width="1" transform="matrix(11.8081,0,0,11.8081,0,0)" font-size="34.375"/>
  <g stroke-opacity="1" fill="none" font-family="MS Shell Dlg 2" stroke="#000000" stroke-linejoin="bevel" font-style="normal" stroke-linecap="square" font-weight="400" stroke-width="1" transform="matrix(11.8081,0,0,11.8081,0,0)" font-size="34.375"/>
  <g stroke-opacity="1" fill="none" font-family="MS Shell Dlg 2" stroke="#000000" stroke-linejoin="bevel" font-style="normal" stroke-linecap="square" font-weight="400" stroke-width="1" transform="matrix(11.8081,0,0,11.8081,0,0)" font-size="34.375"/>
  <g stroke-opacity="1" fill="none" font-family="MS Shell Dlg 2" stroke="#000000" stroke-linejoin="bevel" font-style="normal" stroke-linecap="square" font-weight="400" stroke-width="1" transform="matrix(1,0,0,1,0,0)" font-size="34.375"/>
 </g>
 <defs/>
 <g fill="none" inkscape:label="Layer 5" inkscape:groupmode="layer" stroke="black" fill-rule="evenodd" stroke-linejoin="bevel" stroke-linecap="square" id="Layer 5" stroke-width="1">
  <g stroke-opacity="1" fill="none" font-family="MS Shell Dlg 2" stroke="#000000" stroke-linejoin="bevel" font-style="normal" stroke-linecap="square" font-weight="400" stroke-width="1" transform="matrix(1,0,0,1,0,0)" font-size="34.375"/>
  <g stroke-opacity="1" fill="none" font-family="MS Shell Dlg 2" stroke="#000000" stroke-linejoin="bevel" font-style="normal" stroke-linecap="square" font-weight="400" stroke-width="1" transform="matrix(11.8081,0,0,11.8081,0,0)" font-size="34.375"/>
  <g stroke-opacity="1" fill="none" font-family="MS Shell Dlg 2" stroke="#000000" stroke-linejoin="bevel" font-style="normal" stroke-linecap="square" font-weight="400" stroke-width="1" transform="matrix(11.8081,0,0,11.8081,0,0)" font-size="34.375"/>
  <g fill="#000000" font-family="MS Shell Dlg 2" stroke="none" font-style="normal" fill-opacity="0" font-weight="400" transform="matrix(0.999751,0,0,0.999751,0,0)" font-size="34.375">
   <path fill-rule="evenodd" vector-effect="non-scaling-stroke" d="M0,0 L3508,0 L3508,2480 L0,2480 L0,0"/>
  </g>
  <g stroke-opacity="1" fill="#000000" font-family="MS Shell Dlg 2" stroke="#000000" stroke-linejoin="bevel" font-style="normal" fill-opacity="1" stroke-linecap="square" font-weight="400" stroke-width="1" transform="matrix(0.999751,0,0,0.999751,0,0)" font-size="34.375">
   <path fill-rule="evenodd" vector-effect="non-scaling-stroke" d="M2338.96,1767.57 L2344.32,1784.08 L2361.68,1784.08 L2367.04,1767.57 L2353,1757.37 L2338.96,1767.57"/>
   <path fill-rule="evenodd" vector-effect="non-scaling-stroke" d="M3332.44,538.557 L3337.81,555.061 L3355.16,555.061 L3360.52,538.557 L3346.48,528.356 L3332.44,538.557"/>
   <path fill-rule="evenodd" vector-effect="non-scaling-stroke" d="M2477,460.03 L2482.36,476.534 L2499.72,476.534 L2505.08,460.03 L2491.04,449.829 L2477,460.03"/>
   <path fill-rule="evenodd" vector-effect="non-scaling-stroke" d="M2466.49,1718.4 L2471.86,1734.9 L2489.21,1734.9 L2494.57,1718.4 L2480.53,1708.2 L2466.49,1718.4"/>
   <path fill-rule="evenodd" vector-effect="non-scaling-stroke" d="M2523.46,663.847 L2528.82,680.351 L2546.17,680.351 L2551.54,663.847 L2537.5,653.646 L2523.46,663.847"/>
   <path fill-rule="evenodd" vector-effect="non-scaling-stroke" d="M2238.15,2166.16 L2243.51,2182.67 L2260.86,2182.67 L2266.22,2166.16 L2252.19,2155.96 L2238.15,2166.16"/>
   <path fill-rule="evenodd" vector-effect="non-scaling-stroke" d="M3438.07,547.452 L3443.43,563.956 L3460.79,563.956 L3466.15,547.452 L3452.11,537.252 L3438.07,547.452"/>
   <path fill-rule="evenodd" vector-effect="non-scaling-stroke" d="M3454.82,1672.48 L3460.18,1688.99 L3477.53,1688.99 L3482.89,1672.48 L3468.85,1662.28 L3454.82,1672.48"/>
   <path fill-rule="evenodd" vector-effect="non-scaling-stroke" d="M153.007,1215.48 L158.37,1231.98 L175.724,1231.98 L181.086,1215.48 L167.047,1205.28 L153.007,1215.48"/>
   <path fill-rule="evenodd" vector-effect="non-scaling-stroke" d="M81.7523,762.578 L87.1148,779.082 L104.469,779.082 L109.831,762.578 L95.7917,752.378 L81.7523,762.578"/>
   <path fill-rule="evenodd" vector-effect="non-scaling-stroke" d="M1549.76,335.49 L1555.12,351.995 L1572.47,351.995 L1577.84,335.49 L1563.8,325.29 L1549.76,335.49"/>
   <path fill-rule="evenodd" vector-effect="non-scaling-stroke" d="M1402.48,314.355 L1407.84,330.86 L1425.2,330.86 L1430.56,314.355 L1416.52,304.155 L1402.48,314.355"/>
   <path fill-rule="evenodd" vector-effect="non-scaling-stroke" d="M1364.25,1354.24 L1369.61,1370.75 L1386.96,1370.75 L1392.32,1354.24 L1378.29,1344.04 L1364.25,1354.24"/>
   <path fill-rule="evenodd" vector-effect="non-scaling-stroke" d="M200.953,2112.55 L206.316,2129.05 L223.669,2129.05 L229.032,2112.55 L214.992,2102.35 L200.953,2112.55"/>
   <path fill-rule="evenodd" vector-effect="non-scaling-stroke" d="M1271.03,2170.43 L1276.39,2186.93 L1293.74,2186.93 L1299.11,2170.43 L1285.07,2160.23 L1271.03,2170.43"/>
  </g>
  <g stroke-opacity="1" fill="none" font-family="MS Shell Dlg 2" stroke="#000000" stroke-linejoin="bevel" font-style="normal" stroke-linecap="square" font-weight="400" stroke-width="1" transform="matrix(11.8081,0,0,11.8081,0,0)" font-size="34.375"/>
  <g stroke-opacity="1" fill="none" font-family="MS Shell Dlg 2" stroke="#000000" stroke-linejoin="bevel" font-style="normal" stroke-linecap="square" font-weight="400" stroke-width="1" transform="matrix(11.8081,0,0,11.8081,0,0)" font-size="34.375"/>
  <g stroke-opacity="1" fill="none" font-family="MS Shell Dlg 2" stroke="#000000" stroke-linejoin="bevel" font-style="normal" stroke-linecap="square" font-weight="400" stroke-width="1" transform="matrix(11.8081,0,0,11.8081,0,0)" font-size="34.375"/>
  <g stroke-opacity="1" fill="none" font-family="MS Shell Dlg 2" stroke="#000000" stroke-linejoin="bevel" font-style="normal" stroke-linecap="square" font-weight="400" stroke-width="1" transform="matrix(1,0,0,1,0,0)" font-size="34.375"/>
  <g stroke-opacity="1" fill="none" font-family="MS Shell Dlg 2" stroke="#000000" stroke-linejoin="bevel" font-style="normal" stroke-linecap="square" font-weight="400" stroke-width="1" transform="matrix(11.8081,0,0,11.8081,0,0)" font-size="34.375"/>
  <g stroke-opacity="1" fill="none" font-family="MS Shell Dlg 2" stroke="#000000" stroke-linejoin="bevel" font-style="normal" stroke-linecap="square" font-weight="400" stroke-width="1" transform="matrix(11.8081,0,0,11.8081,0,0)" font-size="34.375"/>
  <g stroke-opacity="1" fill="none" font-family="MS Shell Dlg 2" stroke="#000000" stroke-linejoin="bevel" font-style="normal" stroke-linecap="square" font-weight="400" stroke-width="1" transform="matrix(11.8081,0,0,11.8081,0,0)" font-size="34.375"/>
  <g stroke-opacity="1" fill="none" font-family="MS Shell Dlg 2" stroke="#000000" stroke-linejoin="bevel" font-style="normal" stroke-linecap="square" font-weight="400" stroke-width="1" transform="matrix(11.8081,0,0,11.8081,0,0)" font-size="34.375"/>
  <g stroke-opacity="1" fill="none" font-family="MS Shell Dlg 2" stroke="#000000" stroke-linejoin="bevel" font-style="normal" stroke-linecap="square" font-weight="400" stroke-width="1" transform="matrix(1,0,0,1,0,0)" font-size="34.375"/>
 </g>
 <defs/>
 <g fill="none" inkscape:label="Layer 6" inkscape:groupmode="layer" stroke="black" fill-rule="evenodd" stroke-linejoin="bevel" stroke-linecap="square" id="Layer 6" stroke-width="1">
  <g stroke-opacity="1" fill="none" font-family="MS Shell Dlg 2" stroke="#000000" stroke-linejoin="bevel" font-style="normal" stroke-linecap="square" font-weight="400" stroke-width="1" transform="matrix(1,0,0,1,0,0)" font-size="34.375"/>
  <g stroke-opacity="1" fill="none" font-family="MS Shell Dlg 2" stroke="#000000" stroke-linejoin="bevel" font-style="normal" stroke-linecap="square" font-weight="400" stroke-width="1" transform="matrix(11.8081,0,0,11.8081,0,0)" font-size="34.375"/>
  <g stroke-opacity="1" fill="none" font-family="MS Shell Dlg 2" stroke="#000000" stroke-linejoin="bevel" font-style="normal" stroke-linecap="square" font-weight="400" stroke-width="1" transform="matrix(11.8081,0,0,11.8081,0,0)" font-size="34.375"/>
  <g fill="#000000" font-family="MS Shell Dlg 2" stroke="none" font-style="normal" fill-opacity="0" font-weight="400" transform="matrix(0.999751,0,0,0.999751,0,0)" font-size="34.375">
   <path fill-rule="evenodd" vector-effect="non-scaling-stroke" d="M0,0 L3508,0 L3508,2480 L0,2480 L0,0"/>
  </g>
  <g stroke-opacity="1" stroke-dasharray="35.4286,17.7143" fill="none" font-family="MS Shell Dlg 2" stroke="#3d00f4" stroke-linejoin="bevel" font-style="normal" stroke-linecap="square" font-weight="400" stroke-width="8.85714" stroke-dashoffset="0" transform="matrix(0.999751,0,0,0.999751,0,0)" font-size="34.375">
   <path fill-rule="evenodd" vector-effect="none" d="M-371.195,2182.02 L120.064,2186.37 L130.602,2187.43 L140.793,2190.3 L150.335,2194.89 L158.938,2201.06 L166.344,2208.62 L172.33,2217.35 L176.715,2226.99 L179.366,2237.24 L180.203,2247.8 L191.363,2439.51 L193.632,2480.46 L204.243,2660.24 L208.57,2732.7"/>
   <path fill-rule="evenodd" vector-effect="none" d="M1596.55,623.342 L1593.63,622.933"/>
   <path fill-rule="evenodd" vector-effect="none" d="M1589.13,659.563 L1577.46,744.683"/>
   <path fill-rule="evenodd" vector-effect="none" d="M1577.46,744.683 L1579.96,745.015"/>
   <path fill-rule="evenodd" vector-effect="none" d="M1591.62,659.894 L1589.13,659.563"/>
   <path fill-rule="evenodd" vector-effect="none" d="M757.195,-139.237 L839.205,-273.368 L1413.23,-268.546 L1384.91,118.857 L1383.32,133.452 L1379.41,147.6 L1373.26,160.933 L1362.18,176.463 L1347.51,188.656 L1330.22,196.707 L1311.43,200.086 L1296.06,200.008 L1274.98,196.387 L1254.46,190.334 L1234.79,181.935 L823.845,-7.44743 L801.576,-20.4975 L781.643,-36.8948 L764.544,-56.2309 L757.658,-66.745 L752.579,-78.2425 L749.442,-90.4137 L748.335,-102.934 L749.283,-115.467 L752.264,-127.677 L757.195,-139.237"/>
   <path fill-rule="evenodd" vector-effect="none" d="M721.026,109.176 L705.684,102.46 L689.481,98.2248 L672.815,96.5748 L656.096,97.5515 L639.736,101.13 L624.136,107.223 L609.68,115.68 L596.726,126.294 L585.59,138.802 L275.5,644.351 L208.84,751.181 L196.419,782.753 L193.559,816.565 L197.491,879.157 L213.059,1166.55 L213.311,1170.79 L214.266,1174.93 L215.897,1178.86 L218.158,1182.45 L220.988,1185.63 L224.305,1188.28 L228.018,1190.35 L232.023,1191.77 L236.209,1192.5 L285.89,1200.31 L447.303,1225.67 L605.603,1250.81 L634.614,1255.53 L734.638,1271.5 L738.533,1271.53 L742.384,1270.94 L746.09,1269.74 L749.557,1267.97 L752.696,1265.66 L786.905,1233.24 L1094.52,1283.26 L1120.64,1268.26 L1206.22,1283.14 L1219.07,1284.36 L1231.96,1283.7 L1244.61,1281.16 L1256.76,1276.8 L1268.14,1270.72 L1278.51,1263.04 L1298.07,1239.02 L1308.37,1209.8 L1319.33,1066.04 L1415.68,1040.02 L1420.19,1038.34 L1424.39,1036.01 L1428.2,1033.08 L1431.53,1029.6 L1434.3,1025.67 L1436.46,1021.37 L1437.94,1016.79 L1446.93,956.907 L1453.25,914.934 L1498.77,612.467 L1520.68,469.242 L1521.18,460.658 L1520.25,452.109 L1517.93,443.828 L1514.29,436.041 L1509.41,428.958 L1503.44,422.772 L1496.53,417.651 L1488.88,413.735 L1480.68,411.129 L1419.6,396.105 L1329.24,374.105 L1275.71,361.226 L1256.01,356.455 L1218.6,339.046 L1174.65,319.163 L888.41,186.398 L821.724,155.666 L812.861,151.088 L769.554,131.328 L721.026,109.176"/>
   <path fill-rule="evenodd" vector-effect="none" d="M319.256,2188.25 L353.146,2188.59 L670.345,2192.07 L715.673,2192.61 L913.328,2194.8 L969.58,2195.39 L1187.1,2197.55 L1194.39,2198.29 L1201.45,2200.21 L1208.11,2203.25 L1214.18,2207.33 L1219.51,2212.35 L1223.95,2218.17 L1227.39,2224.63 L1229.73,2231.57 L1230.91,2238.79 L1230.89,2246.11 L1206.27,2659.69 L1203.1,2712.23 L1201.4,2741.04 L319.272,2733.63 L297.082,2355.59 L290.553,2217.18 L290.741,2212.61 L291.674,2208.14 L293.328,2203.88 L295.656,2199.95 L298.597,2196.45 L302.07,2193.49 L305.982,2191.13 L310.228,2189.44 L314.693,2188.47 L319.256,2188.25"/>
   <path fill-rule="evenodd" vector-effect="none" d="M1287.66,1488.48 L1247.09,2034.14 L1246.43,2043.2 L1244.26,2052.03 L1240.64,2060.37 L1235.68,2067.98 L1229.51,2074.66 L1219.2,2082.05 L1207.79,2087.57 L1195.59,2091.06 L1182.98,2092.42 L321.005,2083.65 L311.666,2082.77 L302.592,2080.42 L294.013,2076.63 L286.153,2071.53 L279.212,2065.23 L273.372,2057.89 L268.782,2049.72 L265.563,2040.91 L263.796,2031.71 L249.925,1799.05 L247.434,1756.47 L238.473,1605.21 L235.182,1548.88 L220.068,1298.84 L219.989,1291.76 L221.135,1284.77 L223.471,1278.08 L226.926,1271.9 L231.397,1266.4 L237.526,1260.66 L244.526,1256.01 L252.202,1252.59 L260.339,1250.5 L268.711,1249.78 L277.085,1250.48 L596.368,1301.1 L743.347,1324.24 L788.945,1331.4 L954.438,1357.75 L1017.83,1367.73 L1211.36,1398.32 L1225.45,1401.29 L1238.86,1406.53 L1251.23,1413.91 L1262.21,1423.22 L1271.51,1434.21 L1278.88,1446.59 L1284.11,1460 L1287.07,1474.09 L1287.66,1488.48"/>
   <path fill-rule="evenodd" vector-effect="none" d="M166.983,2030.85 L108.637,1064.35 L106.091,1050.61 L99.2637,1038.44 L88.8827,1029.1 L76.051,1023.61 L62.1324,1022.53 L48.6078,1025.99 L36.9156,1033.61 L28.2987,1044.6 L-367.033,1686.1 L-370.297,2075.05 L105.935,2081.07 L128.855,2079.82 L136.248,2078.06 L143.24,2075.09 L149.631,2070.98 L155.241,2065.85 L159.909,2059.86 L163.503,2053.16 L165.92,2045.96 L167.091,2038.45 L166.983,2030.85"/>
   <path fill-rule="evenodd" vector-effect="none" d="M-84.2354,-281.125 L348.564,-63.7844 L365.047,-54.3563 L379.992,-42.6472 L389.735,-30.9952 L397.583,-17.9912 L403.351,-3.94 L406.903,10.828 L408.157,25.9647 L406.21,45.4323 L401.571,64.4392 L394.33,82.6144 L384.629,99.6047 L-363.918,1314.97"/>
   <path fill-rule="evenodd" vector-effect="none" d="M592.411,173.829 L558.628,229.3"/>
   <path fill-rule="evenodd" vector-effect="none" d="M546.968,229.099 L564.078,239.517"/>
   <path fill-rule="evenodd" vector-effect="none" d="M565.408,198.86 L582.518,209.278"/>
   <path fill-rule="evenodd" vector-effect="none" d="M562.325,203.912 L579.435,214.33"/>
   <path fill-rule="evenodd" vector-effect="none" d="M583.849,168.62 L600.959,179.038"/>
   <path fill-rule="evenodd" vector-effect="none" d="M580.78,173.658 L597.89,184.076"/>
   <path fill-rule="evenodd" vector-effect="none" d="M577.697,178.696 L594.807,189.113"/>
   <path fill-rule="evenodd" vector-effect="none" d="M574.628,183.733 L591.738,194.151"/>
   <path fill-rule="evenodd" vector-effect="none" d="M284.775,1276.9 L284.774,1275.24 L278.849,1274.14 L244.157,1306.12 L244.874,1312.08 L246.321,1312.07"/>
   <path fill-rule="evenodd" vector-effect="none" d="M559.257,208.95 L576.366,219.367"/>
   <path fill-rule="evenodd" vector-effect="none" d="M556.188,213.987 L573.298,224.405"/>
   <path fill-rule="evenodd" vector-effect="none" d="M553.105,219.024 L570.215,229.442"/>
   <path fill-rule="evenodd" vector-effect="none" d="M550.037,224.062 L567.147,234.479"/>
   <path fill-rule="evenodd" vector-effect="none" d="M571.56,188.77 L588.67,199.188"/>
   <path fill-rule="evenodd" vector-effect="none" d="M568.476,193.823 L585.586,204.24"/>
   <path fill-rule="evenodd" vector-effect="none" d="M116.433,1212.84 L116.213,1210.05 L115.513,1207.35 L114.354,1204.81 L112.771,1202.51 L110.813,1200.52 L108.538,1198.89 L106.017,1197.69 L103.325,1196.95 L100.544,1196.68 L97.759,1196.9 L95.0555,1197.6 L92.5136,1198.76 L90.212,1200.34 L88.2208,1202.3 L86.5994,1204.58 L85.3976,1207.1 L84.6521,1209.79 L84.3858,1212.57 L84.6054,1215.35 L85.3063,1218.06 L86.4656,1220.6 L88.0487,1222.9 L90.0068,1224.89 L92.2815,1226.51 L94.8028,1227.72 L97.4948,1228.46 L100.276,1228.73 L103.06,1228.51 L105.764,1227.81 L108.306,1226.65 L110.607,1225.07 L112.599,1223.11 L114.22,1220.83 L115.421,1218.31 L116.167,1215.62 L116.433,1212.84"/>
   <path fill-rule="evenodd" vector-effect="none" d="M107.707,1089.34 L107.486,1086.54 L106.781,1083.82 L105.616,1081.26 L104.025,1078.95 L102.056,1076.95 L99.7687,1075.32 L97.2341,1074.11 L94.5272,1073.36 L91.7324,1073.09 L88.9326,1073.31 L86.2143,1074.02 L83.659,1075.18 L81.3456,1076.77 L79.3433,1078.74 L77.7131,1081.03 L76.5049,1083.56 L75.7555,1086.27 L75.4874,1089.07 L75.7086,1091.87 L76.4132,1094.58 L77.5787,1097.14 L79.1695,1099.45 L81.1385,1101.45 L83.4255,1103.08 L85.9601,1104.29 L88.667,1105.04 L91.462,1105.31 L94.2616,1105.09 L96.98,1104.38 L99.5353,1103.22 L101.849,1101.63 L103.851,1099.66 L105.481,1097.37 L106.689,1094.84 L107.439,1092.13 L107.707,1089.34"/>
   <path fill-rule="evenodd" vector-effect="none" d="M2908.91,1677.66 L2930.17,1680.23 L2951.58,1680.1 L2972.8,1677.28"/>
   <path fill-rule="evenodd" vector-effect="none" d="M2341.03,562.8 L2341.24,560.646 L2305.1,557.287 L2304.91,559.204"/>
   <path fill-rule="evenodd" vector-effect="none" d="M2304.75,559.188 L2304.91,557.61 L2147.67,541.675 L2147.47,543.71"/>
   <path fill-rule="evenodd" vector-effect="none" d="M1824.45,512.714 L1824.94,507.773 L1993.82,523.982 L1993.34,529.1"/>
   <path fill-rule="evenodd" vector-effect="none" d="M1766.7,504.936 L1661.3,494.825 L1604.71,541.217"/>
   <path fill-rule="evenodd" vector-effect="none" d="M1604.71,541.217 L1593.63,622.933"/>
   <path fill-rule="evenodd" vector-effect="none" d="M1766.49,507.148 L1766.7,504.936"/>
   <path fill-rule="evenodd" vector-effect="none" d="M2620.46,384.878 L2659.19,380.111 L3003.17,339.307 L3216.98,313.853 L3390.89,292.95"/>
   <path fill-rule="evenodd" vector-effect="none" d="M1442.88,2123.79 L1699.26,2129.19 L1721.91,2103.73"/>
   <path fill-rule="evenodd" vector-effect="none" d="M3417.6,367.175 L3493.32,359.78"/>
   <path fill-rule="evenodd" vector-effect="none" d="M2328.41,1467.9 L2300.68,1451.29 L2336.56,1234.03 L2369.25,1224.71"/>
   <path fill-rule="evenodd" vector-effect="none" d="M2710.47,584.045 L2710.53,550.492"/>
   <path fill-rule="evenodd" vector-effect="none" d="M2648.42,536.862 L2648.85,591.499"/>
   <path fill-rule="evenodd" vector-effect="none" d="M2241.68,1984.42 L2215.39,1965.23 L2251.63,1747.05 L2283,1738.34"/>
   <path fill-rule="evenodd" vector-effect="none" d="M1388.43,1689.8 L1406.99,1712.81 L1409.78,1692.78 L1388.43,1689.8"/>
   <path fill-rule="evenodd" vector-effect="none" d="M2300.68,1451.29 L2336.56,1234.03"/>
   <path fill-rule="evenodd" vector-effect="none" d="M2908.91,1677.66 L2772.6,1651.48 L2734.53,1647.31 L2696.25,1648.62 L2603.66,1658.09 L2586.4,1659.26 L2569.19,1657.54 L2552.51,1652.97 L2536.83,1645.67 L2522.59,1635.85 L2510.19,1623.8 L2499.98,1609.84 L2492.24,1594.37 L2487.2,1577.82 L2485,1560.67 L2485.69,1543.39 L2521.64,1265.88 L2574.91,848.482 L2580.77,816.57 L2591.6,785.983 L2607.11,757.485 L2626.92,731.79 L2650.54,709.543 L2677.37,691.299 L2706.75,677.514 L2737.93,668.535 L3214.58,610.453 L3236.46,608.603 L3258.37,610.212 L3279.74,615.237 L3300.07,623.554 L3318.84,634.959 L3335.58,649.167 L3337.74,653.593 L3347.17,733.585 L3373.45,952.824 L3417.59,1324.04 L3445.04,1551.23 L3445.04,1563.65 L3442.92,1575.9 L3438.76,1587.6 L3432.66,1598.43 L3424.81,1608.06 L3415.44,1616.22 L3404.82,1622.67 L3393.25,1627.21 L3381.08,1629.72 L2972.8,1677.28"/>
   <path fill-rule="evenodd" vector-effect="none" d="M1442.88,2123.79 L1426.6,2119.4 L1411.15,2112.66 L1396.85,2103.74 L1384.01,2092.82 L1371.67,2079.73 L1361.32,2065.03 L1353.18,2048.99 L1348.93,2038.27 L1346.3,2027.04 L1345.33,2015.54 L1346.06,2004.03 L1375.15,1988.86 L1402.62,1791.54 L1409.77,1733.67 L1440.3,1512.88 L1447.78,1459.32 L1455.58,1403.98 L1464.31,1341.24 L1498.66,1095.29 L1558.83,736.836 L1587.02,511.383 L1589.45,498.552 L1594.02,486.322 L1600.61,475.05 L1609.02,465.065 L1619.02,456.66 L1630.29,450.081 L1642.53,445.52 L1655.36,443.111 L1668.42,442.923 L1782.13,455.482 L1824.08,460.1 L1927.59,472.307 L2006.86,481.343 L2200.56,502.337 L2332.4,517.07 L2414.78,525.777 L2423.79,527.256 L2432.43,530.188 L2440.48,534.495 L2447.71,540.062 L2453.94,546.737 L2458.99,554.342 L2462.73,562.67 L2465.05,571.497 L2465.9,580.586 L2465.25,589.69 L2455.87,660.423 L2446.76,727.394 L2437.91,793.274 L2419,928.405 L2241.07,1988.05 L2235.26,2014.29 L2226.18,2039.59 L2213.97,2063.54 L2195.57,2085.44 L2171.99,2101.64 L2144.95,2110.96 L2116.4,2112.74 L1981.62,2109.38 L1721.91,2103.73 L1468.47,2097.98 L1442.88,2123.79"/>
   <path fill-rule="evenodd" vector-effect="none" d="M3565.4,1837.27 L3544.51,1814.21 L3520.33,1794.62 L3493.43,1778.98 L3464.45,1767.65 L3434.08,1760.9 L3403.03,1758.89 L3186.47,1774.68 L2506.92,1823.61 L2481.49,1833.03 L2458.01,1846.6 L2437.14,1863.93 L2419.49,1884.52 L2405.55,1907.78 L2395.72,1933.06 L2389.2,1979.59 L2359.77,2199.74 L2319.76,2502.41 L2323.79,2674.96 L2325.52,2750.48"/>
   <path fill-rule="evenodd" vector-effect="none" d="M1338.39,2229.67 L1343.08,2217.86 L1351.52,2208.36 L1362.7,2202.31 L1375.28,2200.46 L1982.62,2215.14 L2140.86,2218.28 L2148.55,2219.16 L2155.98,2221.35 L2162.91,2224.81 L2169.14,2229.41 L2174.48,2235.03 L2178.76,2241.48 L2181.85,2248.59 L2183.66,2256.12 L2184.14,2263.85 L2185.05,2301.33 L2185.94,2331.94 L2188.56,2479.67 L2189.98,2544.59 L2194.29,2735.46 L2194.56,2749.38 L1309.44,2741.95 L1315.03,2647.74 L1323.74,2492.38 L1326.6,2440.69 L1338.39,2229.67"/>
   <path fill-rule="evenodd" vector-effect="none" d="M1392.18,1818.01 L1372.04,1815.48 L1394.8,1796.95 L1392.18,1818.01"/>
   <path fill-rule="evenodd" vector-effect="none" d="M2622.12,548.864 L2622.57,546.262 L2623.44,543.772 L2624.73,541.467 L2626.39,539.413 L2628.37,537.669 L2630.62,536.285 L2633.07,535.302 L2635.65,534.747 L2638.29,534.637 L2753.92,560.024 L2755.48,560.368 L2756.95,560.966 L2758.31,561.802 L2759.5,562.852 L2760.51,564.086 L2761.29,565.472 L2761.83,566.967 L2762.12,568.533 L2762.14,570.125 L2761.89,571.697 L2761.38,573.205 L2760.63,574.609 L2759.66,575.868 L2758.49,576.947 L2757.16,577.816 L2755.7,578.451 L2754.16,578.833 L2752.57,578.952 L2636.78,592.962 L2634.16,592.757 L2631.62,592.107 L2629.22,591.031 L2627.05,589.561 L2625.16,587.74 L2623.6,585.622 L2622.44,583.27 L2621.69,580.752 L2621.39,578.145 L2622.12,548.864"/>
   <path fill-rule="evenodd" vector-effect="none" d="M2364.52,2750.81 L2363.17,2687.78 L2361.04,2501.33 L2364.7,2452.2 L2379.14,2297.18 L2389.59,2125.44 L2388.67,2076.87"/>
   <path fill-rule="evenodd" vector-effect="none" d="M2417.9,2076.23 L2419.86,2141.93 L2409.11,2296.99 L2394.82,2452.16 L2391.15,2502.02 L2392.84,2688.03 L2394.39,2751.06"/>
   <path fill-rule="evenodd" vector-effect="none" d="M3383.51,55.4334 L3381.25,55.5321"/>
   <path fill-rule="evenodd" vector-effect="none" d="M3465.76,-88.9233 L3467.21,-41.275 L3471.47,1.24409"/>
   <path fill-rule="evenodd" vector-effect="none" d="M3473.67,1.0267 L3471.47,1.24409"/>
   <path fill-rule="evenodd" vector-effect="none" d="M3378.39,-65.3152 L3383.51,55.4334"/>
   <path fill-rule="evenodd" vector-effect="none" d="M3297.43,257.785 L3210.2,268.478"/>
   <path fill-rule="evenodd" vector-effect="none" d="M3001.48,292.601 L3207.74,268.56"/>
   <path fill-rule="evenodd" vector-effect="none" d="M3207.39,265.635 L3207.74,268.56"/>
   <path fill-rule="evenodd" vector-effect="none" d="M3209.83,265.346 L3210.2,268.478"/>
   <path fill-rule="evenodd" vector-effect="none" d="M2992.77,294.241 L2895.92,306.034"/>
   <path fill-rule="evenodd" vector-effect="none" d="M2992.33,290.724 L2992.77,294.241"/>
   <path fill-rule="evenodd" vector-effect="none" d="M2895.49,302.531 L2895.92,306.034"/>
   <path fill-rule="evenodd" vector-effect="none" d="M3001.13,289.676 L3001.48,292.601"/>
   <path fill-rule="evenodd" vector-effect="none" d="M3482.7,247.326 L3411.74,251.512"/>
   <path fill-rule="evenodd" vector-effect="none" d="M2617.14,-258.432 L2602.11,-164.053 L2571.76,22.854 L2541.98,206.268 L2530.21,280.582 L2528.89,309.456 L2534.75,337.761 L2547.41,363.741 L2566.11,385.794 L2614.29,423.51 L2668.13,452.582 L2726.1,472.18 L2788.92,480.438 L2852.21,483.617 L3013.66,465.031 L3242.94,438.201 L3371.24,421.167 L3379.74,420.07 L3387.92,417.527 L3395.53,413.613 L3402.37,408.445 L3408.2,402.178 L3412.88,394.998 L3416.24,387.121 L3418.2,378.782 L3411.74,251.512 L3402.68,48.5681 L3400.54,-2.83555 L3396.14,-61.5498 L3382.13,-252.005"/>
   <path fill-rule="evenodd" vector-effect="none" d="M3494.23,279.81 L3541.81,274.261 L3568.56,271.312 L3877.21,234.625 L3879.73,234.825"/>
   <path fill-rule="evenodd" vector-effect="none" d="M3433.76,-251.571 L3441.63,-146.002 L3443.74,-121.539 L3446.92,-89.628 L3482.7,247.326 L3500.81,439.32 L3504.88,458.662 L3512.16,477.037 L3522.44,493.916 L3535.43,508.814 L3550.75,521.301 L3567.97,531.018 L3586.57,537.684 L3606.04,541.108 L3625.8,541.192 L3750.07,527.12 L3819.35,519.141 L3877.4,511.876"/>
   <path fill-rule="evenodd" vector-effect="none" d="M3297.07,254.86 L3300.13,279.05 L3390,268.276 L3388.63,243.613"/>
   <path fill-rule="evenodd" vector-effect="none" d="M2009.29,277.8 L2008.95,279.643 L2182.77,311.718 L2183.14,309.714"/>
   <path fill-rule="evenodd" vector-effect="none" d="M2003.52,276.734 L2003.27,278.03 L1844.86,248.844 L1845.07,247.635"/>
   <path fill-rule="evenodd" vector-effect="none" d="M2589.99,116.139 L2587.51,115.748"/>
   <path fill-rule="evenodd" vector-effect="none" d="M2591.28,108.178 L2588.51,107.727"/>
   <path fill-rule="evenodd" vector-effect="none" d="M2608.77,-16.4695 L2588.51,107.727"/>
   <path fill-rule="evenodd" vector-effect="none" d="M2375.49,300.377 L2333.21,330.962"/>
   <path fill-rule="evenodd" vector-effect="none" d="M2373.93,298.223 L2375.49,300.377"/>
   <path fill-rule="evenodd" vector-effect="none" d="M2331.64,328.809 L2333.21,330.962"/>
   <path fill-rule="evenodd" vector-effect="none" d="M2407.3,142.37 L2410.23,142.853"/>
   <path fill-rule="evenodd" vector-effect="none" d="M2417.68,78.0966 L2420.6,78.5641"/>
   <path fill-rule="evenodd" vector-effect="none" d="M2424.34,36.2 L2427.26,36.6674"/>
   <path fill-rule="evenodd" vector-effect="none" d="M2398.72,214.541 L2409.64,146.494"/>
   <path fill-rule="evenodd" vector-effect="none" d="M2410.23,142.853 L2420.6,78.5641"/>
   <path fill-rule="evenodd" vector-effect="none" d="M2427.26,36.6674 L2437.62,-27.9897"/>
   <path fill-rule="evenodd" vector-effect="none" d="M2395.8,214.074 L2398.72,214.541"/>
   <path fill-rule="evenodd" vector-effect="none" d="M2406.72,146.026 L2409.64,146.494"/>
   <path fill-rule="evenodd" vector-effect="none" d="M2834.95,312.444 L2614.74,339.32 L2560.89,282.848 L2587.51,115.748"/>
   <path fill-rule="evenodd" vector-effect="none" d="M2834.64,309.962 L2834.95,312.444"/>
   <path fill-rule="evenodd" vector-effect="none" d="M2058.15,335.796 L2336.54,371.244 L2366.4,374.877 L2373.55,374.476 L2380.55,372.953 L2387.22,370.348 L2393.4,366.726 L2398.93,362.175 L2403.67,356.811 L2407.51,350.767 L2410.35,344.193 L2416.79,308.104 L2453.12,81.7011 L2460.17,39.5419 L2480.48,-83.7088 L2489.52,-139.151 L2496.42,-182.389 L2506.13,-243.568 L2508.67,-259.343 L1519.68,-267.652 L1512.22,-153.887 L1499.03,36.2213 L1492.34,119.981 L1490.58,148.235 L1490.81,164.229 L1493.46,180.006 L1498.44,195.205 L1505.66,209.481 L1514.95,222.506 L1526.08,233.987 L1540.19,243.085 L1555.45,250.085 L1571.55,254.841 L1745.85,283.78 L1774.95,288.689 L1789.88,291.177 L1838.6,299.129 L2058.15,335.796"/>
  </g>
  <g stroke-opacity="1" fill="none" font-family="MS Shell Dlg 2" stroke="#000000" stroke-linejoin="bevel" font-style="normal" stroke-linecap="square" font-weight="400" stroke-width="1" transform="matrix(11.8081,0,0,11.8081,0,0)" font-size="34.375"/>
  <g stroke-opacity="1" fill="none" font-family="MS Shell Dlg 2" stroke="#000000" stroke-linejoin="bevel" font-style="normal" stroke-linecap="square" font-weight="400" stroke-width="1" transform="matrix(11.8081,0,0,11.8081,0,0)" font-size="34.375"/>
  <g stroke-opacity="1" fill="none" font-family="MS Shell Dlg 2" stroke="#000000" stroke-linejoin="bevel" font-style="normal" stroke-linecap="square" font-weight="400" stroke-width="1" transform="matrix(11.8081,0,0,11.8081,0,0)" font-size="34.375"/>
  <g stroke-opacity="1" fill="none" font-family="MS Shell Dlg 2" stroke="#000000" stroke-linejoin="bevel" font-style="normal" stroke-linecap="square" font-weight="400" stroke-width="1" transform="matrix(1,0,0,1,0,0)" font-size="34.375"/>
  <g stroke-opacity="1" fill="none" font-family="MS Shell Dlg 2" stroke="#000000" stroke-linejoin="bevel" font-style="normal" stroke-linecap="square" font-weight="400" stroke-width="1" transform="matrix(11.8081,0,0,11.8081,0,0)" font-size="34.375"/>
  <g stroke-opacity="1" fill="none" font-family="MS Shell Dlg 2" stroke="#000000" stroke-linejoin="bevel" font-style="normal" stroke-linecap="square" font-weight="400" stroke-width="1" transform="matrix(11.8081,0,0,11.8081,0,0)" font-size="34.375"/>
  <g stroke-opacity="1" fill="none" font-family="MS Shell Dlg 2" stroke="#000000" stroke-linejoin="bevel" font-style="normal" stroke-linecap="square" font-weight="400" stroke-width="1" transform="matrix(11.8081,0,0,11.8081,0,0)" font-size="34.375"/>
  <g stroke-opacity="1" fill="none" font-family="MS Shell Dlg 2" stroke="#000000" stroke-linejoin="bevel" font-style="normal" stroke-linecap="square" font-weight="400" stroke-width="1" transform="matrix(11.8081,0,0,11.8081,0,0)" font-size="34.375"/>
  <g stroke-opacity="1" fill="none" font-family="MS Shell Dlg 2" stroke="#000000" stroke-linejoin="bevel" font-style="normal" stroke-linecap="square" font-weight="400" stroke-width="1" transform="matrix(1,0,0,1,0,0)" font-size="34.375"/>
 </g>
 <defs/>
 <g fill="none" inkscape:label="Layer 7" inkscape:groupmode="layer" stroke="black" fill-rule="evenodd" stroke-linejoin="bevel" stroke-linecap="square" id="Layer 7" stroke-width="1">
  <g stroke-opacity="1" fill="none" font-family="MS Shell Dlg 2" stroke="#000000" stroke-linejoin="bevel" font-style="normal" stroke-linecap="square" font-weight="400" stroke-width="1" transform="matrix(1,0,0,1,0,0)" font-size="34.375"/>
  <g stroke-opacity="1" fill="none" font-family="MS Shell Dlg 2" stroke="#000000" stroke-linejoin="bevel" font-style="normal" stroke-linecap="square" font-weight="400" stroke-width="1" transform="matrix(11.8081,0,0,11.8081,0,0)" font-size="34.375"/>
  <g stroke-opacity="1" fill="none" font-family="MS Shell Dlg 2" stroke="#000000" stroke-linejoin="bevel" font-style="normal" stroke-linecap="square" font-weight="400" stroke-width="1" transform="matrix(11.8081,0,0,11.8081,0,0)" font-size="34.375"/>
  <g fill="#000000" font-family="MS Shell Dlg 2" stroke="none" font-style="normal" fill-opacity="0" font-weight="400" transform="matrix(0.999751,0,0,0.999751,0,0)" font-size="34.375">
   <path fill-rule="evenodd" vector-effect="non-scaling-stroke" d="M0,0 L3508,0 L3508,2480 L0,2480 L0,0"/>
  </g>
  <g stroke-opacity="1" fill="none" font-family="MS Shell Dlg 2" stroke="#000000" stroke-linejoin="bevel" font-style="normal" stroke-linecap="square" font-weight="400" stroke-width="1" transform="matrix(11.8081,0,0,11.8081,0,0)" font-size="34.375"/>
  <g stroke-opacity="1" fill="none" font-family="MS Shell Dlg 2" stroke="#000000" stroke-linejoin="bevel" font-style="normal" stroke-linecap="square" font-weight="400" stroke-width="1" transform="matrix(11.8081,0,0,11.8081,0,0)" font-size="34.375"/>
  <g stroke-opacity="1" fill="none" font-family="MS Shell Dlg 2" stroke="#000000" stroke-linejoin="bevel" font-style="normal" stroke-linecap="square" font-weight="400" stroke-width="1" transform="matrix(11.8081,0,0,11.8081,0,0)" font-size="34.375"/>
  <g stroke-opacity="1" fill="none" font-family="MS Shell Dlg 2" stroke="#000000" stroke-linejoin="bevel" font-style="normal" stroke-linecap="square" font-weight="400" stroke-width="1" transform="matrix(1,0,0,1,0,0)" font-size="34.375"/>
  <g stroke-opacity="1" fill="none" font-family="MS Shell Dlg 2" stroke="#000000" stroke-linejoin="bevel" font-style="normal" stroke-linecap="square" font-weight="400" stroke-width="1" transform="matrix(11.8081,0,0,11.8081,0,0)" font-size="34.375"/>
  <g stroke-opacity="1" fill="none" font-family="MS Shell Dlg 2" stroke="#000000" stroke-linejoin="bevel" font-style="normal" stroke-linecap="square" font-weight="400" stroke-width="1" transform="matrix(11.8081,0,0,11.8081,0,0)" font-size="34.375"/>
  <g stroke-opacity="1" fill="none" font-family="MS Shell Dlg 2" stroke="#000000" stroke-linejoin="bevel" font-style="normal" stroke-linecap="square" font-weight="400" stroke-width="1" transform="matrix(11.8081,0,0,11.8081,0,0)" font-size="34.375"/>
  <g stroke-opacity="1" fill="none" font-family="MS Shell Dlg 2" stroke="#000000" stroke-linejoin="bevel" font-style="normal" stroke-linecap="square" font-weight="400" stroke-width="1" transform="matrix(11.8081,0,0,11.8081,0,0)" font-size="34.375"/>
  <g stroke-opacity="1" fill="none" font-family="MS Shell Dlg 2" stroke="#000000" stroke-linejoin="bevel" font-style="normal" stroke-linecap="square" font-weight="400" stroke-width="1" transform="matrix(1,0,0,1,0,0)" font-size="34.375"/>
 </g>
 <defs/>
 <g fill="none" inkscape:label="Layer 8" inkscape:groupmode="layer" stroke="black" fill-rule="evenodd" stroke-linejoin="bevel" stroke-linecap="square" id="Layer 8" stroke-width="1">
  <g stroke-opacity="1" fill="none" font-family="MS Shell Dlg 2" stroke="#000000" stroke-linejoin="bevel" font-style="normal" stroke-linecap="square" font-weight="400" stroke-width="1" transform="matrix(1,0,0,1,0,0)" font-size="34.375"/>
  <g stroke-opacity="1" fill="none" font-family="MS Shell Dlg 2" stroke="#000000" stroke-linejoin="bevel" font-style="normal" stroke-linecap="square" font-weight="400" stroke-width="1" transform="matrix(11.8081,0,0,11.8081,0,0)" font-size="34.375"/>
  <g stroke-opacity="1" fill="none" font-family="MS Shell Dlg 2" stroke="#000000" stroke-linejoin="bevel" font-style="normal" stroke-linecap="square" font-weight="400" stroke-width="1" transform="matrix(11.8081,0,0,11.8081,0,0)" font-size="34.375"/>
  <g fill="#000000" font-family="MS Shell Dlg 2" stroke="none" font-style="normal" fill-opacity="0" font-weight="400" transform="matrix(0.999751,0,0,0.999751,0,0)" font-size="34.375">
   <path fill-rule="evenodd" vector-effect="non-scaling-stroke" d="M0,0 L3508,0 L3508,2480 L0,2480 L0,0"/>
  </g>
  <g stroke-opacity="1" fill="none" font-family="MS Shell Dlg 2" stroke="#000000" stroke-linejoin="bevel" font-style="normal" stroke-linecap="square" font-weight="400" stroke-width="1" transform="matrix(11.8081,0,0,11.8081,0,0)" font-size="34.375"/>
  <g stroke-opacity="1" fill="none" font-family="MS Shell Dlg 2" stroke="#000000" stroke-linejoin="bevel" font-style="normal" stroke-linecap="square" font-weight="400" stroke-width="1" transform="matrix(11.8081,0,0,11.8081,0,0)" font-size="34.375"/>
  <g stroke-opacity="1" fill="none" font-family="MS Shell Dlg 2" stroke="#000000" stroke-linejoin="bevel" font-style="normal" stroke-linecap="square" font-weight="400" stroke-width="1" transform="matrix(11.8081,0,0,11.8081,0,0)" font-size="34.375"/>
  <g stroke-opacity="1" fill="none" font-family="MS Shell Dlg 2" stroke="#000000" stroke-linejoin="bevel" font-style="normal" stroke-linecap="square" font-weight="400" stroke-width="1" transform="matrix(1,0,0,1,0,0)" font-size="34.375"/>
  <g stroke-opacity="1" fill="none" font-family="MS Shell Dlg 2" stroke="#000000" stroke-linejoin="bevel" font-style="normal" stroke-linecap="square" font-weight="400" stroke-width="1" transform="matrix(11.8081,0,0,11.8081,0,0)" font-size="34.375"/>
  <g stroke-opacity="1" fill="none" font-family="MS Shell Dlg 2" stroke="#000000" stroke-linejoin="bevel" font-style="normal" stroke-linecap="square" font-weight="400" stroke-width="1" transform="matrix(11.8081,0,0,11.8081,0,0)" font-size="34.375"/>
  <g stroke-opacity="1" fill="none" font-family="MS Shell Dlg 2" stroke="#000000" stroke-linejoin="bevel" font-style="normal" stroke-linecap="square" font-weight="400" stroke-width="1" transform="matrix(11.8081,0,0,11.8081,0,0)" font-size="34.375"/>
  <g stroke-opacity="1" fill="none" font-family="MS Shell Dlg 2" stroke="#000000" stroke-linejoin="bevel" font-style="normal" stroke-linecap="square" font-weight="400" stroke-width="1" transform="matrix(11.8081,0,0,11.8081,0,0)" font-size="34.375"/>
  <g stroke-opacity="1" fill="none" font-family="MS Shell Dlg 2" stroke="#000000" stroke-linejoin="bevel" font-style="normal" stroke-linecap="square" font-weight="400" stroke-width="1" transform="matrix(1,0,0,1,0,0)" font-size="34.375"/>
 </g>
</svg>
