<?xml version="1.0" encoding="utf-8" standalone="no"?>
<!DOCTYPE svg PUBLIC "-//W3C//DTD SVG 1.1//EN"
  "http://www.w3.org/Graphics/SVG/1.1/DTD/svg11.dtd">
<!-- Created with matplotlib (http://matplotlib.org/) -->
<svg height="432pt" version="1.1" viewBox="0 0 576 432" width="576pt" xmlns="http://www.w3.org/2000/svg" xmlns:xlink="http://www.w3.org/1999/xlink">
 <defs>
  <style type="text/css">
*{stroke-linecap:butt;stroke-linejoin:round;}
  </style>
 </defs>
 <g id="figure_1">
  <g id="patch_1">
   <path d="
M0 432
L576 432
L576 0
L0 0
z
" style="fill:#ffffff;"/>
  </g>
  <g id="axes_1">
   <g id="patch_2">
    <path d="
M72 388.8
L518.4 388.8
L518.4 43.2
L72 43.2
z
" style="fill:#ffffff;"/>
   </g>
   <g id="patch_3">
    <path clip-path="url(#p7ff5b81e1d)" d="
M72.6377 388.8
L75.1886 388.8
L75.1886 369.304
L72.6377 369.304
z
" style="fill:#0000ff;stroke:#000000;"/>
   </g>
   <g id="patch_4">
    <path clip-path="url(#p7ff5b81e1d)" d="
M79.0149 388.8
L81.5657 388.8
L81.5657 369.072
L79.0149 369.072
z
" style="fill:#0000ff;stroke:#000000;"/>
   </g>
   <g id="patch_5">
    <path clip-path="url(#p7ff5b81e1d)" d="
M85.392 388.8
L87.9428 388.8
L87.9428 368.989
L85.392 368.989
z
" style="fill:#0000ff;stroke:#000000;"/>
   </g>
   <g id="patch_6">
    <path clip-path="url(#p7ff5b81e1d)" d="
M91.7691 388.8
L94.32 388.8
L94.32 369.134
L91.7691 369.134
z
" style="fill:#0000ff;stroke:#000000;"/>
   </g>
   <g id="patch_7">
    <path clip-path="url(#p7ff5b81e1d)" d="
M98.1463 388.8
L100.697 388.8
L100.697 369.571
L98.1463 369.571
z
" style="fill:#0000ff;stroke:#000000;"/>
   </g>
   <g id="patch_8">
    <path clip-path="url(#p7ff5b81e1d)" d="
M104.523 388.8
L107.074 388.8
L107.074 369.846
L104.523 369.846
z
" style="fill:#0000ff;stroke:#000000;"/>
   </g>
   <g id="patch_9">
    <path clip-path="url(#p7ff5b81e1d)" d="
M110.901 388.8
L113.451 388.8
L113.451 369.55
L110.901 369.55
z
" style="fill:#0000ff;stroke:#000000;"/>
   </g>
   <g id="patch_10">
    <path clip-path="url(#p7ff5b81e1d)" d="
M117.278 388.8
L119.829 388.8
L119.829 369.622
L117.278 369.622
z
" style="fill:#0000ff;stroke:#000000;"/>
   </g>
   <g id="patch_11">
    <path clip-path="url(#p7ff5b81e1d)" d="
M123.655 388.8
L126.206 388.8
L126.206 368.929
L123.655 368.929
z
" style="fill:#0000ff;stroke:#000000;"/>
   </g>
   <g id="patch_12">
    <path clip-path="url(#p7ff5b81e1d)" d="
M130.032 388.8
L132.583 388.8
L132.583 369.115
L130.032 369.115
z
" style="fill:#0000ff;stroke:#000000;"/>
   </g>
   <g id="patch_13">
    <path clip-path="url(#p7ff5b81e1d)" d="
M136.409 388.8
L138.96 388.8
L138.96 369.115
L136.409 369.115
z
" style="fill:#0000ff;stroke:#000000;"/>
   </g>
   <g id="patch_14">
    <path clip-path="url(#p7ff5b81e1d)" d="
M142.786 388.8
L145.337 388.8
L145.337 369.666
L142.786 369.666
z
" style="fill:#0000ff;stroke:#000000;"/>
   </g>
   <g id="patch_15">
    <path clip-path="url(#p7ff5b81e1d)" d="
M149.163 388.8
L151.714 388.8
L151.714 369.115
L149.163 369.115
z
" style="fill:#0000ff;stroke:#000000;"/>
   </g>
   <g id="patch_16">
    <path clip-path="url(#p7ff5b81e1d)" d="
M155.541 388.8
L158.091 388.8
L158.091 368.795
L155.541 368.795
z
" style="fill:#0000ff;stroke:#000000;"/>
   </g>
   <g id="patch_17">
    <path clip-path="url(#p7ff5b81e1d)" d="
M161.918 388.8
L164.469 388.8
L164.469 368.365
L161.918 368.365
z
" style="fill:#0000ff;stroke:#000000;"/>
   </g>
   <g id="patch_18">
    <path clip-path="url(#p7ff5b81e1d)" d="
M168.295 388.8
L170.846 388.8
L170.846 368.314
L168.295 368.314
z
" style="fill:#0000ff;stroke:#000000;"/>
   </g>
   <g id="patch_19">
    <path clip-path="url(#p7ff5b81e1d)" d="
M174.672 388.8
L177.223 388.8
L177.223 368.242
L174.672 368.242
z
" style="fill:#0000ff;stroke:#000000;"/>
   </g>
   <g id="patch_20">
    <path clip-path="url(#p7ff5b81e1d)" d="
M181.049 388.8
L183.6 388.8
L183.6 368.256
L181.049 368.256
z
" style="fill:#0000ff;stroke:#000000;"/>
   </g>
   <g id="patch_21">
    <path clip-path="url(#p7ff5b81e1d)" d="
M187.426 388.8
L189.977 388.8
L189.977 368.476
L187.426 368.476
z
" style="fill:#0000ff;stroke:#000000;"/>
   </g>
   <g id="patch_22">
    <path clip-path="url(#p7ff5b81e1d)" d="
M193.803 388.8
L196.354 388.8
L196.354 368.981
L193.803 368.981
z
" style="fill:#0000ff;stroke:#000000;"/>
   </g>
   <g id="patch_23">
    <path clip-path="url(#p7ff5b81e1d)" d="
M200.18 388.8
L202.731 388.8
L202.731 369.131
L200.18 369.131
z
" style="fill:#0000ff;stroke:#000000;"/>
   </g>
   <g id="patch_24">
    <path clip-path="url(#p7ff5b81e1d)" d="
M206.558 388.8
L209.108 388.8
L209.108 369.438
L206.558 369.438
z
" style="fill:#0000ff;stroke:#000000;"/>
   </g>
   <g id="patch_25">
    <path clip-path="url(#p7ff5b81e1d)" d="
M212.935 388.8
L215.486 388.8
L215.486 370.294
L212.935 370.294
z
" style="fill:#0000ff;stroke:#000000;"/>
   </g>
   <g id="patch_26">
    <path clip-path="url(#p7ff5b81e1d)" d="
M219.312 388.8
L221.863 388.8
L221.863 372.048
L219.312 372.048
z
" style="fill:#0000ff;stroke:#000000;"/>
   </g>
   <g id="patch_27">
    <path clip-path="url(#p7ff5b81e1d)" d="
M225.689 388.8
L228.24 388.8
L228.24 373.636
L225.689 373.636
z
" style="fill:#0000ff;stroke:#000000;"/>
   </g>
   <g id="patch_28">
    <path clip-path="url(#p7ff5b81e1d)" d="
M232.066 388.8
L234.617 388.8
L234.617 374.212
L232.066 374.212
z
" style="fill:#0000ff;stroke:#000000;"/>
   </g>
   <g id="patch_29">
    <path clip-path="url(#p7ff5b81e1d)" d="
M238.443 388.8
L240.994 388.8
L240.994 375.066
L238.443 375.066
z
" style="fill:#0000ff;stroke:#000000;"/>
   </g>
   <g id="patch_30">
    <path clip-path="url(#p7ff5b81e1d)" d="
M244.82 388.8
L247.371 388.8
L247.371 376.18
L244.82 376.18
z
" style="fill:#0000ff;stroke:#000000;"/>
   </g>
   <g id="patch_31">
    <path clip-path="url(#p7ff5b81e1d)" d="
M251.198 388.8
L253.748 388.8
L253.748 376.869
L251.198 376.869
z
" style="fill:#0000ff;stroke:#000000;"/>
   </g>
   <g id="patch_32">
    <path clip-path="url(#p7ff5b81e1d)" d="
M257.575 388.8
L260.126 388.8
L260.126 377.232
L257.575 377.232
z
" style="fill:#0000ff;stroke:#000000;"/>
   </g>
   <g id="patch_33">
    <path clip-path="url(#p7ff5b81e1d)" d="
M263.952 388.8
L266.503 388.8
L266.503 377.831
L263.952 377.831
z
" style="fill:#0000ff;stroke:#000000;"/>
   </g>
   <g id="patch_34">
    <path clip-path="url(#p7ff5b81e1d)" d="
M270.329 388.8
L272.88 388.8
L272.88 378.525
L270.329 378.525
z
" style="fill:#0000ff;stroke:#000000;"/>
   </g>
   <g id="patch_35">
    <path clip-path="url(#p7ff5b81e1d)" d="
M276.706 388.8
L279.257 388.8
L279.257 379.089
L276.706 379.089
z
" style="fill:#0000ff;stroke:#000000;"/>
   </g>
   <g id="patch_36">
    <path clip-path="url(#p7ff5b81e1d)" d="
M283.083 388.8
L285.634 388.8
L285.634 379.781
L283.083 379.781
z
" style="fill:#0000ff;stroke:#000000;"/>
   </g>
   <g id="patch_37">
    <path clip-path="url(#p7ff5b81e1d)" d="
M289.46 388.8
L292.011 388.8
L292.011 380.723
L289.46 380.723
z
" style="fill:#0000ff;stroke:#000000;"/>
   </g>
   <g id="patch_38">
    <path clip-path="url(#p7ff5b81e1d)" d="
M295.838 388.8
L298.388 388.8
L298.388 380.106
L295.838 380.106
z
" style="fill:#0000ff;stroke:#000000;"/>
   </g>
   <g id="patch_39">
    <path clip-path="url(#p7ff5b81e1d)" d="
M302.215 388.8
L304.766 388.8
L304.766 380.518
L302.215 380.518
z
" style="fill:#0000ff;stroke:#000000;"/>
   </g>
   <g id="patch_40">
    <path clip-path="url(#p7ff5b81e1d)" d="
M308.592 388.8
L311.143 388.8
L311.143 381.345
L308.592 381.345
z
" style="fill:#0000ff;stroke:#000000;"/>
   </g>
   <g id="patch_41">
    <path clip-path="url(#p7ff5b81e1d)" d="
M314.969 388.8
L317.52 388.8
L317.52 382.202
L314.969 382.202
z
" style="fill:#0000ff;stroke:#000000;"/>
   </g>
   <g id="patch_42">
    <path clip-path="url(#p7ff5b81e1d)" d="
M321.346 388.8
L323.897 388.8
L323.897 382.171
L321.346 382.171
z
" style="fill:#0000ff;stroke:#000000;"/>
   </g>
   <g id="patch_43">
    <path clip-path="url(#p7ff5b81e1d)" d="
M327.723 388.8
L330.274 388.8
L330.274 382.592
L327.723 382.592
z
" style="fill:#0000ff;stroke:#000000;"/>
   </g>
   <g id="patch_44">
    <path clip-path="url(#p7ff5b81e1d)" d="
M334.1 388.8
L336.651 388.8
L336.651 382.986
L334.1 382.986
z
" style="fill:#0000ff;stroke:#000000;"/>
   </g>
   <g id="patch_45">
    <path clip-path="url(#p7ff5b81e1d)" d="
M340.478 388.8
L343.028 388.8
L343.028 383.393
L340.478 383.393
z
" style="fill:#0000ff;stroke:#000000;"/>
   </g>
   <g id="patch_46">
    <path clip-path="url(#p7ff5b81e1d)" d="
M346.855 388.8
L349.406 388.8
L349.406 383.949
L346.855 383.949
z
" style="fill:#0000ff;stroke:#000000;"/>
   </g>
   <g id="patch_47">
    <path clip-path="url(#p7ff5b81e1d)" d="
M353.232 388.8
L355.783 388.8
L355.783 384.537
L353.232 384.537
z
" style="fill:#0000ff;stroke:#000000;"/>
   </g>
   <g id="patch_48">
    <path clip-path="url(#p7ff5b81e1d)" d="
M359.609 388.8
L362.16 388.8
L362.16 384.835
L359.609 384.835
z
" style="fill:#0000ff;stroke:#000000;"/>
   </g>
   <g id="patch_49">
    <path clip-path="url(#p7ff5b81e1d)" d="
M365.986 388.8
L368.537 388.8
L368.537 385.008
L365.986 385.008
z
" style="fill:#0000ff;stroke:#000000;"/>
   </g>
   <g id="patch_50">
    <path clip-path="url(#p7ff5b81e1d)" d="
M372.363 388.8
L374.914 388.8
L374.914 385.139
L372.363 385.139
z
" style="fill:#0000ff;stroke:#000000;"/>
   </g>
   <g id="patch_51">
    <path clip-path="url(#p7ff5b81e1d)" d="
M378.74 388.8
L381.291 388.8
L381.291 385.363
L378.74 385.363
z
" style="fill:#0000ff;stroke:#000000;"/>
   </g>
   <g id="patch_52">
    <path clip-path="url(#p7ff5b81e1d)" d="
M385.117 388.8
L387.668 388.8
L387.668 385.616
L385.117 385.616
z
" style="fill:#0000ff;stroke:#000000;"/>
   </g>
   <g id="patch_53">
    <path clip-path="url(#p7ff5b81e1d)" d="
M391.495 388.8
L394.045 388.8
L394.045 385.466
L391.495 385.466
z
" style="fill:#0000ff;stroke:#000000;"/>
   </g>
   <g id="patch_54">
    <path clip-path="url(#p7ff5b81e1d)" d="
M397.872 388.8
L400.423 388.8
L400.423 386.013
L397.872 386.013
z
" style="fill:#0000ff;stroke:#000000;"/>
   </g>
   <g id="patch_55">
    <path clip-path="url(#p7ff5b81e1d)" d="
M404.249 388.8
L406.8 388.8
L406.8 386.274
L404.249 386.274
z
" style="fill:#0000ff;stroke:#000000;"/>
   </g>
   <g id="patch_56">
    <path clip-path="url(#p7ff5b81e1d)" d="
M410.626 388.8
L413.177 388.8
L413.177 386.453
L410.626 386.453
z
" style="fill:#0000ff;stroke:#000000;"/>
   </g>
   <g id="patch_57">
    <path clip-path="url(#p7ff5b81e1d)" d="
M417.003 388.8
L419.554 388.8
L419.554 386.574
L417.003 386.574
z
" style="fill:#0000ff;stroke:#000000;"/>
   </g>
   <g id="patch_58">
    <path clip-path="url(#p7ff5b81e1d)" d="
M423.38 388.8
L425.931 388.8
L425.931 386.555
L423.38 386.555
z
" style="fill:#0000ff;stroke:#000000;"/>
   </g>
   <g id="patch_59">
    <path clip-path="url(#p7ff5b81e1d)" d="
M429.757 388.8
L432.308 388.8
L432.308 386.696
L429.757 386.696
z
" style="fill:#0000ff;stroke:#000000;"/>
   </g>
   <g id="patch_60">
    <path clip-path="url(#p7ff5b81e1d)" d="
M436.135 388.8
L438.685 388.8
L438.685 386.737
L436.135 386.737
z
" style="fill:#0000ff;stroke:#000000;"/>
   </g>
   <g id="patch_61">
    <path clip-path="url(#p7ff5b81e1d)" d="
M442.512 388.8
L445.063 388.8
L445.063 386.925
L442.512 386.925
z
" style="fill:#0000ff;stroke:#000000;"/>
   </g>
   <g id="patch_62">
    <path clip-path="url(#p7ff5b81e1d)" d="
M448.889 388.8
L451.44 388.8
L451.44 387.076
L448.889 387.076
z
" style="fill:#0000ff;stroke:#000000;"/>
   </g>
   <g id="patch_63">
    <path clip-path="url(#p7ff5b81e1d)" d="
M455.266 388.8
L457.817 388.8
L457.817 387.203
L455.266 387.203
z
" style="fill:#0000ff;stroke:#000000;"/>
   </g>
   <g id="patch_64">
    <path clip-path="url(#p7ff5b81e1d)" d="
M461.643 388.8
L464.194 388.8
L464.194 387.466
L461.643 387.466
z
" style="fill:#0000ff;stroke:#000000;"/>
   </g>
   <g id="patch_65">
    <path clip-path="url(#p7ff5b81e1d)" d="
M468.02 388.8
L470.571 388.8
L470.571 387.445
L468.02 387.445
z
" style="fill:#0000ff;stroke:#000000;"/>
   </g>
   <g id="patch_66">
    <path clip-path="url(#p7ff5b81e1d)" d="
M474.397 388.8
L476.948 388.8
L476.948 387.578
L474.397 387.578
z
" style="fill:#0000ff;stroke:#000000;"/>
   </g>
   <g id="patch_67">
    <path clip-path="url(#p7ff5b81e1d)" d="
M480.775 388.8
L483.325 388.8
L483.325 387.655
L480.775 387.655
z
" style="fill:#0000ff;stroke:#000000;"/>
   </g>
   <g id="patch_68">
    <path clip-path="url(#p7ff5b81e1d)" d="
M487.152 388.8
L489.703 388.8
L489.703 387.784
L487.152 387.784
z
" style="fill:#0000ff;stroke:#000000;"/>
   </g>
   <g id="patch_69">
    <path clip-path="url(#p7ff5b81e1d)" d="
M493.529 388.8
L496.08 388.8
L496.08 387.94
L493.529 387.94
z
" style="fill:#0000ff;stroke:#000000;"/>
   </g>
   <g id="patch_70">
    <path clip-path="url(#p7ff5b81e1d)" d="
M499.906 388.8
L502.457 388.8
L502.457 387.886
L499.906 387.886
z
" style="fill:#0000ff;stroke:#000000;"/>
   </g>
   <g id="patch_71">
    <path clip-path="url(#p7ff5b81e1d)" d="
M506.283 388.8
L508.834 388.8
L508.834 387.922
L506.283 387.922
z
" style="fill:#0000ff;stroke:#000000;"/>
   </g>
   <g id="patch_72">
    <path clip-path="url(#p7ff5b81e1d)" d="
M512.66 388.8
L515.211 388.8
L515.211 387.836
L512.66 387.836
z
" style="fill:#0000ff;stroke:#000000;"/>
   </g>
   <g id="patch_73">
    <path clip-path="url(#p7ff5b81e1d)" d="
M75.1886 388.8
L77.7394 388.8
L77.7394 105.277
L75.1886 105.277
z
" style="fill:#ff0000;stroke:#000000;"/>
   </g>
   <g id="patch_74">
    <path clip-path="url(#p7ff5b81e1d)" d="
M81.5657 388.8
L84.1166 388.8
L84.1166 280.757
L81.5657 280.757
z
" style="fill:#ff0000;stroke:#000000;"/>
   </g>
   <g id="patch_75">
    <path clip-path="url(#p7ff5b81e1d)" d="
M87.9428 388.8
L90.4937 388.8
L90.4937 322.81
L87.9428 322.81
z
" style="fill:#ff0000;stroke:#000000;"/>
   </g>
   <g id="patch_76">
    <path clip-path="url(#p7ff5b81e1d)" d="
M94.32 388.8
L96.8708 388.8
L96.8708 339.887
L94.32 339.887
z
" style="fill:#ff0000;stroke:#000000;"/>
   </g>
   <g id="patch_77">
    <path clip-path="url(#p7ff5b81e1d)" d="
M100.697 388.8
L103.248 388.8
L103.248 350.763
L100.697 350.763
z
" style="fill:#ff0000;stroke:#000000;"/>
   </g>
   <g id="patch_78">
    <path clip-path="url(#p7ff5b81e1d)" d="
M107.074 388.8
L109.625 388.8
L109.625 358.966
L107.074 358.966
z
" style="fill:#ff0000;stroke:#000000;"/>
   </g>
   <g id="patch_79">
    <path clip-path="url(#p7ff5b81e1d)" d="
M113.451 388.8
L116.002 388.8
L116.002 365.356
L113.451 365.356
z
" style="fill:#ff0000;stroke:#000000;"/>
   </g>
   <g id="patch_80">
    <path clip-path="url(#p7ff5b81e1d)" d="
M119.829 388.8
L122.379 388.8
L122.379 370.041
L119.829 370.041
z
" style="fill:#ff0000;stroke:#000000;"/>
   </g>
   <g id="patch_81">
    <path clip-path="url(#p7ff5b81e1d)" d="
M126.206 388.8
L128.757 388.8
L128.757 373.602
L126.206 373.602
z
" style="fill:#ff0000;stroke:#000000;"/>
   </g>
   <g id="patch_82">
    <path clip-path="url(#p7ff5b81e1d)" d="
M132.583 388.8
L135.134 388.8
L135.134 376.675
L132.583 376.675
z
" style="fill:#ff0000;stroke:#000000;"/>
   </g>
   <g id="patch_83">
    <path clip-path="url(#p7ff5b81e1d)" d="
M138.96 388.8
L141.511 388.8
L141.511 378.939
L138.96 378.939
z
" style="fill:#ff0000;stroke:#000000;"/>
   </g>
   <g id="patch_84">
    <path clip-path="url(#p7ff5b81e1d)" d="
M145.337 388.8
L147.888 388.8
L147.888 380.749
L145.337 380.749
z
" style="fill:#ff0000;stroke:#000000;"/>
   </g>
   <g id="patch_85">
    <path clip-path="url(#p7ff5b81e1d)" d="
M151.714 388.8
L154.265 388.8
L154.265 381.961
L151.714 381.961
z
" style="fill:#ff0000;stroke:#000000;"/>
   </g>
   <g id="patch_86">
    <path clip-path="url(#p7ff5b81e1d)" d="
M158.091 388.8
L160.642 388.8
L160.642 383.163
L158.091 383.163
z
" style="fill:#ff0000;stroke:#000000;"/>
   </g>
   <g id="patch_87">
    <path clip-path="url(#p7ff5b81e1d)" d="
M164.469 388.8
L167.019 388.8
L167.019 383.55
L164.469 383.55
z
" style="fill:#ff0000;stroke:#000000;"/>
   </g>
   <g id="patch_88">
    <path clip-path="url(#p7ff5b81e1d)" d="
M170.846 388.8
L173.396 388.8
L173.396 384.692
L170.846 384.692
z
" style="fill:#ff0000;stroke:#000000;"/>
   </g>
   <g id="patch_89">
    <path clip-path="url(#p7ff5b81e1d)" d="
M177.223 388.8
L179.774 388.8
L179.774 385.124
L177.223 385.124
z
" style="fill:#ff0000;stroke:#000000;"/>
   </g>
   <g id="patch_90">
    <path clip-path="url(#p7ff5b81e1d)" d="
M183.6 388.8
L186.151 388.8
L186.151 385.666
L183.6 385.666
z
" style="fill:#ff0000;stroke:#000000;"/>
   </g>
   <g id="patch_91">
    <path clip-path="url(#p7ff5b81e1d)" d="
M189.977 388.8
L192.528 388.8
L192.528 386.131
L189.977 386.131
z
" style="fill:#ff0000;stroke:#000000;"/>
   </g>
   <g id="patch_92">
    <path clip-path="url(#p7ff5b81e1d)" d="
M196.354 388.8
L198.905 388.8
L198.905 386.371
L196.354 386.371
z
" style="fill:#ff0000;stroke:#000000;"/>
   </g>
   <g id="patch_93">
    <path clip-path="url(#p7ff5b81e1d)" d="
M202.731 388.8
L205.282 388.8
L205.282 386.823
L202.731 386.823
z
" style="fill:#ff0000;stroke:#000000;"/>
   </g>
   <g id="patch_94">
    <path clip-path="url(#p7ff5b81e1d)" d="
M209.108 388.8
L211.659 388.8
L211.659 386.993
L209.108 386.993
z
" style="fill:#ff0000;stroke:#000000;"/>
   </g>
   <g id="patch_95">
    <path clip-path="url(#p7ff5b81e1d)" d="
M215.486 388.8
L218.036 388.8
L218.036 387.172
L215.486 387.172
z
" style="fill:#ff0000;stroke:#000000;"/>
   </g>
   <g id="patch_96">
    <path clip-path="url(#p7ff5b81e1d)" d="
M221.863 388.8
L224.414 388.8
L224.414 387.257
L221.863 387.257
z
" style="fill:#ff0000;stroke:#000000;"/>
   </g>
   <g id="patch_97">
    <path clip-path="url(#p7ff5b81e1d)" d="
M228.24 388.8
L230.791 388.8
L230.791 387.604
L228.24 387.604
z
" style="fill:#ff0000;stroke:#000000;"/>
   </g>
   <g id="patch_98">
    <path clip-path="url(#p7ff5b81e1d)" d="
M234.617 388.8
L237.168 388.8
L237.168 387.702
L234.617 387.702
z
" style="fill:#ff0000;stroke:#000000;"/>
   </g>
   <g id="patch_99">
    <path clip-path="url(#p7ff5b81e1d)" d="
M240.994 388.8
L243.545 388.8
L243.545 387.697
L240.994 387.697
z
" style="fill:#ff0000;stroke:#000000;"/>
   </g>
   <g id="patch_100">
    <path clip-path="url(#p7ff5b81e1d)" d="
M247.371 388.8
L249.922 388.8
L249.922 387.929
L247.371 387.929
z
" style="fill:#ff0000;stroke:#000000;"/>
   </g>
   <g id="patch_101">
    <path clip-path="url(#p7ff5b81e1d)" d="
M253.748 388.8
L256.299 388.8
L256.299 387.989
L253.748 387.989
z
" style="fill:#ff0000;stroke:#000000;"/>
   </g>
   <g id="patch_102">
    <path clip-path="url(#p7ff5b81e1d)" d="
M260.126 388.8
L262.676 388.8
L262.676 388.067
L260.126 388.067
z
" style="fill:#ff0000;stroke:#000000;"/>
   </g>
   <g id="patch_103">
    <path clip-path="url(#p7ff5b81e1d)" d="
M266.503 388.8
L269.054 388.8
L269.054 388.159
L266.503 388.159
z
" style="fill:#ff0000;stroke:#000000;"/>
   </g>
   <g id="patch_104">
    <path clip-path="url(#p7ff5b81e1d)" d="
M272.88 388.8
L275.431 388.8
L275.431 388.175
L272.88 388.175
z
" style="fill:#ff0000;stroke:#000000;"/>
   </g>
   <g id="patch_105">
    <path clip-path="url(#p7ff5b81e1d)" d="
M279.257 388.8
L281.808 388.8
L281.808 388.254
L279.257 388.254
z
" style="fill:#ff0000;stroke:#000000;"/>
   </g>
   <g id="patch_106">
    <path clip-path="url(#p7ff5b81e1d)" d="
M285.634 388.8
L288.185 388.8
L288.185 388.248
L285.634 388.248
z
" style="fill:#ff0000;stroke:#000000;"/>
   </g>
   <g id="patch_107">
    <path clip-path="url(#p7ff5b81e1d)" d="
M292.011 388.8
L294.562 388.8
L294.562 388.282
L292.011 388.282
z
" style="fill:#ff0000;stroke:#000000;"/>
   </g>
   <g id="patch_108">
    <path clip-path="url(#p7ff5b81e1d)" d="
M298.388 388.8
L300.939 388.8
L300.939 388.306
L298.388 388.306
z
" style="fill:#ff0000;stroke:#000000;"/>
   </g>
   <g id="patch_109">
    <path clip-path="url(#p7ff5b81e1d)" d="
M304.766 388.8
L307.316 388.8
L307.316 388.34
L304.766 388.34
z
" style="fill:#ff0000;stroke:#000000;"/>
   </g>
   <g id="patch_110">
    <path clip-path="url(#p7ff5b81e1d)" d="
M311.143 388.8
L313.694 388.8
L313.694 388.378
L311.143 388.378
z
" style="fill:#ff0000;stroke:#000000;"/>
   </g>
   <g id="patch_111">
    <path clip-path="url(#p7ff5b81e1d)" d="
M317.52 388.8
L320.071 388.8
L320.071 388.392
L317.52 388.392
z
" style="fill:#ff0000;stroke:#000000;"/>
   </g>
   <g id="patch_112">
    <path clip-path="url(#p7ff5b81e1d)" d="
M323.897 388.8
L326.448 388.8
L326.448 388.388
L323.897 388.388
z
" style="fill:#ff0000;stroke:#000000;"/>
   </g>
   <g id="patch_113">
    <path clip-path="url(#p7ff5b81e1d)" d="
M330.274 388.8
L332.825 388.8
L332.825 388.356
L330.274 388.356
z
" style="fill:#ff0000;stroke:#000000;"/>
   </g>
   <g id="patch_114">
    <path clip-path="url(#p7ff5b81e1d)" d="
M336.651 388.8
L339.202 388.8
L339.202 388.371
L336.651 388.371
z
" style="fill:#ff0000;stroke:#000000;"/>
   </g>
   <g id="patch_115">
    <path clip-path="url(#p7ff5b81e1d)" d="
M343.028 388.8
L345.579 388.8
L345.579 388.369
L343.028 388.369
z
" style="fill:#ff0000;stroke:#000000;"/>
   </g>
   <g id="patch_116">
    <path clip-path="url(#p7ff5b81e1d)" d="
M349.406 388.8
L351.956 388.8
L351.956 388.36
L349.406 388.36
z
" style="fill:#ff0000;stroke:#000000;"/>
   </g>
   <g id="patch_117">
    <path clip-path="url(#p7ff5b81e1d)" d="
M355.783 388.8
L358.334 388.8
L358.334 388.334
L355.783 388.334
z
" style="fill:#ff0000;stroke:#000000;"/>
   </g>
   <g id="patch_118">
    <path clip-path="url(#p7ff5b81e1d)" d="
M362.16 388.8
L364.711 388.8
L364.711 388.367
L362.16 388.367
z
" style="fill:#ff0000;stroke:#000000;"/>
   </g>
   <g id="patch_119">
    <path clip-path="url(#p7ff5b81e1d)" d="
M368.537 388.8
L371.088 388.8
L371.088 388.402
L368.537 388.402
z
" style="fill:#ff0000;stroke:#000000;"/>
   </g>
   <g id="patch_120">
    <path clip-path="url(#p7ff5b81e1d)" d="
M374.914 388.8
L377.465 388.8
L377.465 388.425
L374.914 388.425
z
" style="fill:#ff0000;stroke:#000000;"/>
   </g>
   <g id="patch_121">
    <path clip-path="url(#p7ff5b81e1d)" d="
M381.291 388.8
L383.842 388.8
L383.842 388.467
L381.291 388.467
z
" style="fill:#ff0000;stroke:#000000;"/>
   </g>
   <g id="patch_122">
    <path clip-path="url(#p7ff5b81e1d)" d="
M387.668 388.8
L390.219 388.8
L390.219 388.515
L387.668 388.515
z
" style="fill:#ff0000;stroke:#000000;"/>
   </g>
   <g id="patch_123">
    <path clip-path="url(#p7ff5b81e1d)" d="
M394.045 388.8
L396.596 388.8
L396.596 388.508
L394.045 388.508
z
" style="fill:#ff0000;stroke:#000000;"/>
   </g>
   <g id="patch_124">
    <path clip-path="url(#p7ff5b81e1d)" d="
M400.423 388.8
L402.973 388.8
L402.973 388.564
L400.423 388.564
z
" style="fill:#ff0000;stroke:#000000;"/>
   </g>
   <g id="patch_125">
    <path clip-path="url(#p7ff5b81e1d)" d="
M406.8 388.8
L409.351 388.8
L409.351 388.543
L406.8 388.543
z
" style="fill:#ff0000;stroke:#000000;"/>
   </g>
   <g id="patch_126">
    <path clip-path="url(#p7ff5b81e1d)" d="
M413.177 388.8
L415.728 388.8
L415.728 388.591
L413.177 388.591
z
" style="fill:#ff0000;stroke:#000000;"/>
   </g>
   <g id="patch_127">
    <path clip-path="url(#p7ff5b81e1d)" d="
M419.554 388.8
L422.105 388.8
L422.105 388.593
L419.554 388.593
z
" style="fill:#ff0000;stroke:#000000;"/>
   </g>
   <g id="patch_128">
    <path clip-path="url(#p7ff5b81e1d)" d="
M425.931 388.8
L428.482 388.8
L428.482 388.627
L425.931 388.627
z
" style="fill:#ff0000;stroke:#000000;"/>
   </g>
   <g id="patch_129">
    <path clip-path="url(#p7ff5b81e1d)" d="
M432.308 388.8
L434.859 388.8
L434.859 388.623
L432.308 388.623
z
" style="fill:#ff0000;stroke:#000000;"/>
   </g>
   <g id="patch_130">
    <path clip-path="url(#p7ff5b81e1d)" d="
M438.685 388.8
L441.236 388.8
L441.236 388.615
L438.685 388.615
z
" style="fill:#ff0000;stroke:#000000;"/>
   </g>
   <g id="patch_131">
    <path clip-path="url(#p7ff5b81e1d)" d="
M445.063 388.8
L447.613 388.8
L447.613 388.645
L445.063 388.645
z
" style="fill:#ff0000;stroke:#000000;"/>
   </g>
   <g id="patch_132">
    <path clip-path="url(#p7ff5b81e1d)" d="
M451.44 388.8
L453.991 388.8
L453.991 388.651
L451.44 388.651
z
" style="fill:#ff0000;stroke:#000000;"/>
   </g>
   <g id="patch_133">
    <path clip-path="url(#p7ff5b81e1d)" d="
M457.817 388.8
L460.368 388.8
L460.368 388.677
L457.817 388.677
z
" style="fill:#ff0000;stroke:#000000;"/>
   </g>
   <g id="patch_134">
    <path clip-path="url(#p7ff5b81e1d)" d="
M464.194 388.8
L466.745 388.8
L466.745 388.692
L464.194 388.692
z
" style="fill:#ff0000;stroke:#000000;"/>
   </g>
   <g id="patch_135">
    <path clip-path="url(#p7ff5b81e1d)" d="
M470.571 388.8
L473.122 388.8
L473.122 388.709
L470.571 388.709
z
" style="fill:#ff0000;stroke:#000000;"/>
   </g>
   <g id="patch_136">
    <path clip-path="url(#p7ff5b81e1d)" d="
M476.948 388.8
L479.499 388.8
L479.499 388.71
L476.948 388.71
z
" style="fill:#ff0000;stroke:#000000;"/>
   </g>
   <g id="patch_137">
    <path clip-path="url(#p7ff5b81e1d)" d="
M483.325 388.8
L485.876 388.8
L485.876 388.716
L483.325 388.716
z
" style="fill:#ff0000;stroke:#000000;"/>
   </g>
   <g id="patch_138">
    <path clip-path="url(#p7ff5b81e1d)" d="
M489.703 388.8
L492.253 388.8
L492.253 388.702
L489.703 388.702
z
" style="fill:#ff0000;stroke:#000000;"/>
   </g>
   <g id="patch_139">
    <path clip-path="url(#p7ff5b81e1d)" d="
M496.08 388.8
L498.631 388.8
L498.631 388.71
L496.08 388.71
z
" style="fill:#ff0000;stroke:#000000;"/>
   </g>
   <g id="patch_140">
    <path clip-path="url(#p7ff5b81e1d)" d="
M502.457 388.8
L505.008 388.8
L505.008 388.712
L502.457 388.712
z
" style="fill:#ff0000;stroke:#000000;"/>
   </g>
   <g id="patch_141">
    <path clip-path="url(#p7ff5b81e1d)" d="
M508.834 388.8
L511.385 388.8
L511.385 388.692
L508.834 388.692
z
" style="fill:#ff0000;stroke:#000000;"/>
   </g>
   <g id="patch_142">
    <path clip-path="url(#p7ff5b81e1d)" d="
M515.211 388.8
L517.762 388.8
L517.762 388.705
L515.211 388.705
z
" style="fill:#ff0000;stroke:#000000;"/>
   </g>
   <g id="matplotlib.axis_1">
    <g id="xtick_1">
     <g id="line2d_1">
      <defs>
       <path d="
M0 0
L0 -4" id="m93b0483c22" style="stroke:#000000;stroke-width:0.5;"/>
      </defs>
      <g>
       <use style="stroke:#000000;stroke-width:0.5;" x="72.0" xlink:href="#m93b0483c22" y="388.8"/>
      </g>
     </g>
     <g id="line2d_2">
      <defs>
       <path d="
M0 0
L0 4" id="m741efc42ff" style="stroke:#000000;stroke-width:0.5;"/>
      </defs>
      <g>
       <use style="stroke:#000000;stroke-width:0.5;" x="72.0" xlink:href="#m741efc42ff" y="43.2"/>
      </g>
     </g>
     <g id="text_1">
      <!-- 0 -->
      <defs>
       <path d="
M31.7812 66.4062
Q24.1719 66.4062 20.3281 58.9062
Q16.5 51.4219 16.5 36.375
Q16.5 21.3906 20.3281 13.8906
Q24.1719 6.39062 31.7812 6.39062
Q39.4531 6.39062 43.2812 13.8906
Q47.125 21.3906 47.125 36.375
Q47.125 51.4219 43.2812 58.9062
Q39.4531 66.4062 31.7812 66.4062
M31.7812 74.2188
Q44.0469 74.2188 50.5156 64.5156
Q56.9844 54.8281 56.9844 36.375
Q56.9844 17.9688 50.5156 8.26562
Q44.0469 -1.42188 31.7812 -1.42188
Q19.5312 -1.42188 13.0625 8.26562
Q6.59375 17.9688 6.59375 36.375
Q6.59375 54.8281 13.0625 64.5156
Q19.5312 74.2188 31.7812 74.2188" id="BitstreamVeraSans-Roman-30"/>
      </defs>
      <g transform="translate(68.9765625 401.918125)scale(0.12 -0.12)">
       <use xlink:href="#BitstreamVeraSans-Roman-30"/>
      </g>
     </g>
    </g>
    <g id="xtick_2">
     <g id="line2d_3">
      <g>
       <use style="stroke:#000000;stroke-width:0.5;" x="146.4" xlink:href="#m93b0483c22" y="388.8"/>
      </g>
     </g>
     <g id="line2d_4">
      <g>
       <use style="stroke:#000000;stroke-width:0.5;" x="146.4" xlink:href="#m741efc42ff" y="43.2"/>
      </g>
     </g>
     <g id="text_2">
      <!-- 1 -->
      <defs>
       <path d="
M12.4062 8.29688
L28.5156 8.29688
L28.5156 63.9219
L10.9844 60.4062
L10.9844 69.3906
L28.4219 72.9062
L38.2812 72.9062
L38.2812 8.29688
L54.3906 8.29688
L54.3906 0
L12.4062 0
z
" id="BitstreamVeraSans-Roman-31"/>
      </defs>
      <g transform="translate(143.795625 401.918125)scale(0.12 -0.12)">
       <use xlink:href="#BitstreamVeraSans-Roman-31"/>
      </g>
     </g>
    </g>
    <g id="xtick_3">
     <g id="line2d_5">
      <g>
       <use style="stroke:#000000;stroke-width:0.5;" x="220.8" xlink:href="#m93b0483c22" y="388.8"/>
      </g>
     </g>
     <g id="line2d_6">
      <g>
       <use style="stroke:#000000;stroke-width:0.5;" x="220.8" xlink:href="#m741efc42ff" y="43.2"/>
      </g>
     </g>
     <g id="text_3">
      <!-- 2 -->
      <defs>
       <path d="
M19.1875 8.29688
L53.6094 8.29688
L53.6094 0
L7.32812 0
L7.32812 8.29688
Q12.9375 14.1094 22.625 23.8906
Q32.3281 33.6875 34.8125 36.5312
Q39.5469 41.8438 41.4219 45.5312
Q43.3125 49.2188 43.3125 52.7812
Q43.3125 58.5938 39.2344 62.25
Q35.1562 65.9219 28.6094 65.9219
Q23.9688 65.9219 18.8125 64.3125
Q13.6719 62.7031 7.8125 59.4219
L7.8125 69.3906
Q13.7656 71.7812 18.9375 73
Q24.125 74.2188 28.4219 74.2188
Q39.75 74.2188 46.4844 68.5469
Q53.2188 62.8906 53.2188 53.4219
Q53.2188 48.9219 51.5312 44.8906
Q49.8594 40.875 45.4062 35.4062
Q44.1875 33.9844 37.6406 27.2188
Q31.1094 20.4531 19.1875 8.29688" id="BitstreamVeraSans-Roman-32"/>
      </defs>
      <g transform="translate(218.023125 401.918125)scale(0.12 -0.12)">
       <use xlink:href="#BitstreamVeraSans-Roman-32"/>
      </g>
     </g>
    </g>
    <g id="xtick_4">
     <g id="line2d_7">
      <g>
       <use style="stroke:#000000;stroke-width:0.5;" x="295.2" xlink:href="#m93b0483c22" y="388.8"/>
      </g>
     </g>
     <g id="line2d_8">
      <g>
       <use style="stroke:#000000;stroke-width:0.5;" x="295.2" xlink:href="#m741efc42ff" y="43.2"/>
      </g>
     </g>
     <g id="text_4">
      <!-- 3 -->
      <defs>
       <path d="
M40.5781 39.3125
Q47.6562 37.7969 51.625 33
Q55.6094 28.2188 55.6094 21.1875
Q55.6094 10.4062 48.1875 4.48438
Q40.7656 -1.42188 27.0938 -1.42188
Q22.5156 -1.42188 17.6562 -0.515625
Q12.7969 0.390625 7.625 2.20312
L7.625 11.7188
Q11.7188 9.32812 16.5938 8.10938
Q21.4844 6.89062 26.8125 6.89062
Q36.0781 6.89062 40.9375 10.5469
Q45.7969 14.2031 45.7969 21.1875
Q45.7969 27.6406 41.2812 31.2656
Q36.7656 34.9062 28.7188 34.9062
L20.2188 34.9062
L20.2188 43.0156
L29.1094 43.0156
Q36.375 43.0156 40.2344 45.9219
Q44.0938 48.8281 44.0938 54.2969
Q44.0938 59.9062 40.1094 62.9062
Q36.1406 65.9219 28.7188 65.9219
Q24.6562 65.9219 20.0156 65.0312
Q15.375 64.1562 9.8125 62.3125
L9.8125 71.0938
Q15.4375 72.6562 20.3438 73.4375
Q25.25 74.2188 29.5938 74.2188
Q40.8281 74.2188 47.3594 69.1094
Q53.9062 64.0156 53.9062 55.3281
Q53.9062 49.2656 50.4375 45.0938
Q46.9688 40.9219 40.5781 39.3125" id="BitstreamVeraSans-Roman-33"/>
      </defs>
      <g transform="translate(292.3209375 401.918125)scale(0.12 -0.12)">
       <use xlink:href="#BitstreamVeraSans-Roman-33"/>
      </g>
     </g>
    </g>
    <g id="xtick_5">
     <g id="line2d_9">
      <g>
       <use style="stroke:#000000;stroke-width:0.5;" x="369.6" xlink:href="#m93b0483c22" y="388.8"/>
      </g>
     </g>
     <g id="line2d_10">
      <g>
       <use style="stroke:#000000;stroke-width:0.5;" x="369.6" xlink:href="#m741efc42ff" y="43.2"/>
      </g>
     </g>
     <g id="text_5">
      <!-- 4 -->
      <defs>
       <path d="
M37.7969 64.3125
L12.8906 25.3906
L37.7969 25.3906
z

M35.2031 72.9062
L47.6094 72.9062
L47.6094 25.3906
L58.0156 25.3906
L58.0156 17.1875
L47.6094 17.1875
L47.6094 0
L37.7969 0
L37.7969 17.1875
L4.89062 17.1875
L4.89062 26.7031
z
" id="BitstreamVeraSans-Roman-34"/>
      </defs>
      <g transform="translate(366.4125 401.918125)scale(0.12 -0.12)">
       <use xlink:href="#BitstreamVeraSans-Roman-34"/>
      </g>
     </g>
    </g>
    <g id="xtick_6">
     <g id="line2d_11">
      <g>
       <use style="stroke:#000000;stroke-width:0.5;" x="444.0" xlink:href="#m93b0483c22" y="388.8"/>
      </g>
     </g>
     <g id="line2d_12">
      <g>
       <use style="stroke:#000000;stroke-width:0.5;" x="444.0" xlink:href="#m741efc42ff" y="43.2"/>
      </g>
     </g>
     <g id="text_6">
      <!-- 5 -->
      <defs>
       <path d="
M10.7969 72.9062
L49.5156 72.9062
L49.5156 64.5938
L19.8281 64.5938
L19.8281 46.7344
Q21.9688 47.4688 24.1094 47.8281
Q26.2656 48.1875 28.4219 48.1875
Q40.625 48.1875 47.75 41.5
Q54.8906 34.8125 54.8906 23.3906
Q54.8906 11.625 47.5625 5.09375
Q40.2344 -1.42188 26.9062 -1.42188
Q22.3125 -1.42188 17.5469 -0.640625
Q12.7969 0.140625 7.71875 1.70312
L7.71875 11.625
Q12.1094 9.23438 16.7969 8.0625
Q21.4844 6.89062 26.7031 6.89062
Q35.1562 6.89062 40.0781 11.3281
Q45.0156 15.7656 45.0156 23.3906
Q45.0156 31 40.0781 35.4375
Q35.1562 39.8906 26.7031 39.8906
Q22.75 39.8906 18.8125 39.0156
Q14.8906 38.1406 10.7969 36.2812
z
" id="BitstreamVeraSans-Roman-35"/>
      </defs>
      <g transform="translate(441.1696875 401.918125)scale(0.12 -0.12)">
       <use xlink:href="#BitstreamVeraSans-Roman-35"/>
      </g>
     </g>
    </g>
    <g id="xtick_7">
     <g id="line2d_13">
      <g>
       <use style="stroke:#000000;stroke-width:0.5;" x="518.4" xlink:href="#m93b0483c22" y="388.8"/>
      </g>
     </g>
     <g id="line2d_14">
      <g>
       <use style="stroke:#000000;stroke-width:0.5;" x="518.4" xlink:href="#m741efc42ff" y="43.2"/>
      </g>
     </g>
     <g id="text_7">
      <!-- 6 -->
      <defs>
       <path d="
M33.0156 40.375
Q26.375 40.375 22.4844 35.8281
Q18.6094 31.2969 18.6094 23.3906
Q18.6094 15.5312 22.4844 10.9531
Q26.375 6.39062 33.0156 6.39062
Q39.6562 6.39062 43.5312 10.9531
Q47.4062 15.5312 47.4062 23.3906
Q47.4062 31.2969 43.5312 35.8281
Q39.6562 40.375 33.0156 40.375
M52.5938 71.2969
L52.5938 62.3125
Q48.875 64.0625 45.0938 64.9844
Q41.3125 65.9219 37.5938 65.9219
Q27.8281 65.9219 22.6719 59.3281
Q17.5312 52.7344 16.7969 39.4062
Q19.6719 43.6562 24.0156 45.9219
Q28.375 48.1875 33.5938 48.1875
Q44.5781 48.1875 50.9531 41.5156
Q57.3281 34.8594 57.3281 23.3906
Q57.3281 12.1562 50.6875 5.35938
Q44.0469 -1.42188 33.0156 -1.42188
Q20.3594 -1.42188 13.6719 8.26562
Q6.98438 17.9688 6.98438 36.375
Q6.98438 53.6562 15.1875 63.9375
Q23.3906 74.2188 37.2031 74.2188
Q40.9219 74.2188 44.7031 73.4844
Q48.4844 72.75 52.5938 71.2969" id="BitstreamVeraSans-Roman-36"/>
      </defs>
      <g transform="translate(515.379375 401.918125)scale(0.12 -0.12)">
       <use xlink:href="#BitstreamVeraSans-Roman-36"/>
      </g>
     </g>
    </g>
   </g>
   <g id="matplotlib.axis_2">
    <g id="ytick_1">
     <g id="line2d_15">
      <defs>
       <path d="
M0 0
L4 0" id="m728421d6d4" style="stroke:#000000;stroke-width:0.5;"/>
      </defs>
      <g>
       <use style="stroke:#000000;stroke-width:0.5;" x="72.0" xlink:href="#m728421d6d4" y="388.8"/>
      </g>
     </g>
     <g id="line2d_16">
      <defs>
       <path d="
M0 0
L-4 0" id="mcb0005524f" style="stroke:#000000;stroke-width:0.5;"/>
      </defs>
      <g>
       <use style="stroke:#000000;stroke-width:0.5;" x="518.4" xlink:href="#mcb0005524f" y="388.8"/>
      </g>
     </g>
     <g id="text_8">
      <!-- 0 -->
      <g transform="translate(61.953125 392.11125)scale(0.12 -0.12)">
       <use xlink:href="#BitstreamVeraSans-Roman-30"/>
      </g>
     </g>
    </g>
    <g id="ytick_2">
     <g id="line2d_17">
      <g>
       <use style="stroke:#000000;stroke-width:0.5;" x="72.0" xlink:href="#m728421d6d4" y="319.68"/>
      </g>
     </g>
     <g id="line2d_18">
      <g>
       <use style="stroke:#000000;stroke-width:0.5;" x="518.4" xlink:href="#mcb0005524f" y="319.68"/>
      </g>
     </g>
     <g id="text_9">
      <!-- 50000 -->
      <g transform="translate(31.548125 322.99125)scale(0.12 -0.12)">
       <use xlink:href="#BitstreamVeraSans-Roman-35"/>
       <use x="63.623046875" xlink:href="#BitstreamVeraSans-Roman-30"/>
       <use x="127.24609375" xlink:href="#BitstreamVeraSans-Roman-30"/>
       <use x="190.869140625" xlink:href="#BitstreamVeraSans-Roman-30"/>
       <use x="254.4921875" xlink:href="#BitstreamVeraSans-Roman-30"/>
      </g>
     </g>
    </g>
    <g id="ytick_3">
     <g id="line2d_19">
      <g>
       <use style="stroke:#000000;stroke-width:0.5;" x="72.0" xlink:href="#m728421d6d4" y="250.56"/>
      </g>
     </g>
     <g id="line2d_20">
      <g>
       <use style="stroke:#000000;stroke-width:0.5;" x="518.4" xlink:href="#mcb0005524f" y="250.56"/>
      </g>
     </g>
     <g id="text_10">
      <!-- 100000 -->
      <g transform="translate(24.305 253.87125)scale(0.12 -0.12)">
       <use xlink:href="#BitstreamVeraSans-Roman-31"/>
       <use x="63.623046875" xlink:href="#BitstreamVeraSans-Roman-30"/>
       <use x="127.24609375" xlink:href="#BitstreamVeraSans-Roman-30"/>
       <use x="190.869140625" xlink:href="#BitstreamVeraSans-Roman-30"/>
       <use x="254.4921875" xlink:href="#BitstreamVeraSans-Roman-30"/>
       <use x="318.115234375" xlink:href="#BitstreamVeraSans-Roman-30"/>
      </g>
     </g>
    </g>
    <g id="ytick_4">
     <g id="line2d_21">
      <g>
       <use style="stroke:#000000;stroke-width:0.5;" x="72.0" xlink:href="#m728421d6d4" y="181.44"/>
      </g>
     </g>
     <g id="line2d_22">
      <g>
       <use style="stroke:#000000;stroke-width:0.5;" x="518.4" xlink:href="#mcb0005524f" y="181.44"/>
      </g>
     </g>
     <g id="text_11">
      <!-- 150000 -->
      <g transform="translate(24.305 184.75125)scale(0.12 -0.12)">
       <use xlink:href="#BitstreamVeraSans-Roman-31"/>
       <use x="63.623046875" xlink:href="#BitstreamVeraSans-Roman-35"/>
       <use x="127.24609375" xlink:href="#BitstreamVeraSans-Roman-30"/>
       <use x="190.869140625" xlink:href="#BitstreamVeraSans-Roman-30"/>
       <use x="254.4921875" xlink:href="#BitstreamVeraSans-Roman-30"/>
       <use x="318.115234375" xlink:href="#BitstreamVeraSans-Roman-30"/>
      </g>
     </g>
    </g>
    <g id="ytick_5">
     <g id="line2d_23">
      <g>
       <use style="stroke:#000000;stroke-width:0.5;" x="72.0" xlink:href="#m728421d6d4" y="112.32"/>
      </g>
     </g>
     <g id="line2d_24">
      <g>
       <use style="stroke:#000000;stroke-width:0.5;" x="518.4" xlink:href="#mcb0005524f" y="112.32"/>
      </g>
     </g>
     <g id="text_12">
      <!-- 200000 -->
      <g transform="translate(23.86625 115.63125)scale(0.12 -0.12)">
       <use xlink:href="#BitstreamVeraSans-Roman-32"/>
       <use x="63.623046875" xlink:href="#BitstreamVeraSans-Roman-30"/>
       <use x="127.24609375" xlink:href="#BitstreamVeraSans-Roman-30"/>
       <use x="190.869140625" xlink:href="#BitstreamVeraSans-Roman-30"/>
       <use x="254.4921875" xlink:href="#BitstreamVeraSans-Roman-30"/>
       <use x="318.115234375" xlink:href="#BitstreamVeraSans-Roman-30"/>
      </g>
     </g>
    </g>
    <g id="ytick_6">
     <g id="line2d_25">
      <g>
       <use style="stroke:#000000;stroke-width:0.5;" x="72.0" xlink:href="#m728421d6d4" y="43.2"/>
      </g>
     </g>
     <g id="line2d_26">
      <g>
       <use style="stroke:#000000;stroke-width:0.5;" x="518.4" xlink:href="#mcb0005524f" y="43.2"/>
      </g>
     </g>
     <g id="text_13">
      <!-- 250000 -->
      <g transform="translate(23.86625 46.51125)scale(0.12 -0.12)">
       <use xlink:href="#BitstreamVeraSans-Roman-32"/>
       <use x="63.623046875" xlink:href="#BitstreamVeraSans-Roman-35"/>
       <use x="127.24609375" xlink:href="#BitstreamVeraSans-Roman-30"/>
       <use x="190.869140625" xlink:href="#BitstreamVeraSans-Roman-30"/>
       <use x="254.4921875" xlink:href="#BitstreamVeraSans-Roman-30"/>
       <use x="318.115234375" xlink:href="#BitstreamVeraSans-Roman-30"/>
      </g>
     </g>
    </g>
   </g>
   <g id="patch_143">
    <path d="
M72 43.2
L518.4 43.2" style="fill:none;stroke:#000000;"/>
   </g>
   <g id="patch_144">
    <path d="
M518.4 388.8
L518.4 43.2" style="fill:none;stroke:#000000;"/>
   </g>
   <g id="patch_145">
    <path d="
M72 388.8
L518.4 388.8" style="fill:none;stroke:#000000;"/>
   </g>
   <g id="patch_146">
    <path d="
M72 388.8
L72 43.2" style="fill:none;stroke:#000000;"/>
   </g>
   <g id="legend_1">
    <g id="patch_147">
     <path d="
M390.334 96.993
L511.2 96.993
L511.2 50.4
L390.334 50.4
L390.334 96.993
z
" style="fill:#ffffff;stroke:#000000;"/>
    </g>
    <g id="patch_148">
     <path d="
M396.094 67.1017
L424.894 67.1017
L424.894 57.0217
L396.094 57.0217
z
" style="fill:#0000ff;stroke:#000000;"/>
    </g>
    <g id="text_14">
     <!-- intial -->
     <defs>
      <path d="
M54.8906 33.0156
L54.8906 0
L45.9062 0
L45.9062 32.7188
Q45.9062 40.4844 42.875 44.3281
Q39.8438 48.1875 33.7969 48.1875
Q26.5156 48.1875 22.3125 43.5469
Q18.1094 38.9219 18.1094 30.9062
L18.1094 0
L9.07812 0
L9.07812 54.6875
L18.1094 54.6875
L18.1094 46.1875
Q21.3438 51.125 25.7031 53.5625
Q30.0781 56 35.7969 56
Q45.2188 56 50.0469 50.1719
Q54.8906 44.3438 54.8906 33.0156" id="BitstreamVeraSans-Roman-6e"/>
      <path d="
M34.2812 27.4844
Q23.3906 27.4844 19.1875 25
Q14.9844 22.5156 14.9844 16.5
Q14.9844 11.7188 18.1406 8.90625
Q21.2969 6.10938 26.7031 6.10938
Q34.1875 6.10938 38.7031 11.4062
Q43.2188 16.7031 43.2188 25.4844
L43.2188 27.4844
z

M52.2031 31.2031
L52.2031 0
L43.2188 0
L43.2188 8.29688
Q40.1406 3.32812 35.5469 0.953125
Q30.9531 -1.42188 24.3125 -1.42188
Q15.9219 -1.42188 10.9531 3.29688
Q6 8.01562 6 15.9219
Q6 25.1406 12.1719 29.8281
Q18.3594 34.5156 30.6094 34.5156
L43.2188 34.5156
L43.2188 35.4062
Q43.2188 41.6094 39.1406 45
Q35.0625 48.3906 27.6875 48.3906
Q23 48.3906 18.5469 47.2656
Q14.1094 46.1406 10.0156 43.8906
L10.0156 52.2031
Q14.9375 54.1094 19.5781 55.0469
Q24.2188 56 28.6094 56
Q40.4844 56 46.3438 49.8438
Q52.2031 43.7031 52.2031 31.2031" id="BitstreamVeraSans-Roman-61"/>
      <path d="
M18.3125 70.2188
L18.3125 54.6875
L36.8125 54.6875
L36.8125 47.7031
L18.3125 47.7031
L18.3125 18.0156
Q18.3125 11.3281 20.1406 9.42188
Q21.9688 7.51562 27.5938 7.51562
L36.8125 7.51562
L36.8125 0
L27.5938 0
Q17.1875 0 13.2344 3.875
Q9.28125 7.76562 9.28125 18.0156
L9.28125 47.7031
L2.6875 47.7031
L2.6875 54.6875
L9.28125 54.6875
L9.28125 70.2188
z
" id="BitstreamVeraSans-Roman-74"/>
      <path d="
M9.42188 54.6875
L18.4062 54.6875
L18.4062 0
L9.42188 0
z

M9.42188 75.9844
L18.4062 75.9844
L18.4062 64.5938
L9.42188 64.5938
z
" id="BitstreamVeraSans-Roman-69"/>
      <path d="
M9.42188 75.9844
L18.4062 75.9844
L18.4062 0
L9.42188 0
z
" id="BitstreamVeraSans-Roman-6c"/>
     </defs>
     <g transform="translate(436.4145 67.10175)scale(0.144 -0.144)">
      <use xlink:href="#BitstreamVeraSans-Roman-69"/>
      <use x="27.783203125" xlink:href="#BitstreamVeraSans-Roman-6e"/>
      <use x="91.162109375" xlink:href="#BitstreamVeraSans-Roman-74"/>
      <use x="130.37109375" xlink:href="#BitstreamVeraSans-Roman-69"/>
      <use x="158.154296875" xlink:href="#BitstreamVeraSans-Roman-61"/>
      <use x="219.43359375" xlink:href="#BitstreamVeraSans-Roman-6c"/>
     </g>
    </g>
    <g id="patch_149">
     <path d="
M396.094 88.2382
L424.894 88.2382
L424.894 78.1582
L396.094 78.1582
z
" style="fill:#ff0000;stroke:#000000;"/>
    </g>
    <g id="text_15">
     <!-- optimised -->
     <defs>
      <path d="
M52 44.1875
Q55.375 50.25 60.0625 53.125
Q64.75 56 71.0938 56
Q79.6406 56 84.2812 50.0156
Q88.9219 44.0469 88.9219 33.0156
L88.9219 0
L79.8906 0
L79.8906 32.7188
Q79.8906 40.5781 77.0938 44.375
Q74.3125 48.1875 68.6094 48.1875
Q61.625 48.1875 57.5625 43.5469
Q53.5156 38.9219 53.5156 30.9062
L53.5156 0
L44.4844 0
L44.4844 32.7188
Q44.4844 40.625 41.7031 44.4062
Q38.9219 48.1875 33.1094 48.1875
Q26.2188 48.1875 22.1562 43.5312
Q18.1094 38.875 18.1094 30.9062
L18.1094 0
L9.07812 0
L9.07812 54.6875
L18.1094 54.6875
L18.1094 46.1875
Q21.1875 51.2188 25.4844 53.6094
Q29.7812 56 35.6875 56
Q41.6562 56 45.8281 52.9688
Q50 49.9531 52 44.1875" id="BitstreamVeraSans-Roman-6d"/>
      <path d="
M30.6094 48.3906
Q23.3906 48.3906 19.1875 42.75
Q14.9844 37.1094 14.9844 27.2969
Q14.9844 17.4844 19.1562 11.8438
Q23.3438 6.20312 30.6094 6.20312
Q37.7969 6.20312 41.9844 11.8594
Q46.1875 17.5312 46.1875 27.2969
Q46.1875 37.0156 41.9844 42.7031
Q37.7969 48.3906 30.6094 48.3906
M30.6094 56
Q42.3281 56 49.0156 48.375
Q55.7188 40.7656 55.7188 27.2969
Q55.7188 13.875 49.0156 6.21875
Q42.3281 -1.42188 30.6094 -1.42188
Q18.8438 -1.42188 12.1719 6.21875
Q5.51562 13.875 5.51562 27.2969
Q5.51562 40.7656 12.1719 48.375
Q18.8438 56 30.6094 56" id="BitstreamVeraSans-Roman-6f"/>
      <path d="
M56.2031 29.5938
L56.2031 25.2031
L14.8906 25.2031
Q15.4844 15.9219 20.4844 11.0625
Q25.4844 6.20312 34.4219 6.20312
Q39.5938 6.20312 44.4531 7.46875
Q49.3125 8.73438 54.1094 11.2812
L54.1094 2.78125
Q49.2656 0.734375 44.1875 -0.34375
Q39.1094 -1.42188 33.8906 -1.42188
Q20.7969 -1.42188 13.1562 6.1875
Q5.51562 13.8125 5.51562 26.8125
Q5.51562 40.2344 12.7656 48.1094
Q20.0156 56 32.3281 56
Q43.3594 56 49.7812 48.8906
Q56.2031 41.7969 56.2031 29.5938
M47.2188 32.2344
Q47.125 39.5938 43.0938 43.9844
Q39.0625 48.3906 32.4219 48.3906
Q24.9062 48.3906 20.3906 44.1406
Q15.875 39.8906 15.1875 32.1719
z
" id="BitstreamVeraSans-Roman-65"/>
      <path d="
M45.4062 46.3906
L45.4062 75.9844
L54.3906 75.9844
L54.3906 0
L45.4062 0
L45.4062 8.20312
Q42.5781 3.32812 38.25 0.953125
Q33.9375 -1.42188 27.875 -1.42188
Q17.9688 -1.42188 11.7344 6.48438
Q5.51562 14.4062 5.51562 27.2969
Q5.51562 40.1875 11.7344 48.0938
Q17.9688 56 27.875 56
Q33.9375 56 38.25 53.625
Q42.5781 51.2656 45.4062 46.3906
M14.7969 27.2969
Q14.7969 17.3906 18.875 11.75
Q22.9531 6.10938 30.0781 6.10938
Q37.2031 6.10938 41.2969 11.75
Q45.4062 17.3906 45.4062 27.2969
Q45.4062 37.2031 41.2969 42.8438
Q37.2031 48.4844 30.0781 48.4844
Q22.9531 48.4844 18.875 42.8438
Q14.7969 37.2031 14.7969 27.2969" id="BitstreamVeraSans-Roman-64"/>
      <path d="
M44.2812 53.0781
L44.2812 44.5781
Q40.4844 46.5312 36.375 47.5
Q32.2812 48.4844 27.875 48.4844
Q21.1875 48.4844 17.8438 46.4375
Q14.5 44.3906 14.5 40.2812
Q14.5 37.1562 16.8906 35.375
Q19.2812 33.5938 26.5156 31.9844
L29.5938 31.2969
Q39.1562 29.25 43.1875 25.5156
Q47.2188 21.7812 47.2188 15.0938
Q47.2188 7.46875 41.1875 3.01562
Q35.1562 -1.42188 24.6094 -1.42188
Q20.2188 -1.42188 15.4531 -0.5625
Q10.6875 0.296875 5.42188 2
L5.42188 11.2812
Q10.4062 8.6875 15.2344 7.39062
Q20.0625 6.10938 24.8125 6.10938
Q31.1562 6.10938 34.5625 8.28125
Q37.9844 10.4531 37.9844 14.4062
Q37.9844 18.0625 35.5156 20.0156
Q33.0625 21.9688 24.7031 23.7812
L21.5781 24.5156
Q13.2344 26.2656 9.51562 29.9062
Q5.8125 33.5469 5.8125 39.8906
Q5.8125 47.6094 11.2812 51.7969
Q16.75 56 26.8125 56
Q31.7812 56 36.1719 55.2656
Q40.5781 54.5469 44.2812 53.0781" id="BitstreamVeraSans-Roman-73"/>
      <path d="
M18.1094 8.20312
L18.1094 -20.7969
L9.07812 -20.7969
L9.07812 54.6875
L18.1094 54.6875
L18.1094 46.3906
Q20.9531 51.2656 25.2656 53.625
Q29.5938 56 35.5938 56
Q45.5625 56 51.7812 48.0938
Q58.0156 40.1875 58.0156 27.2969
Q58.0156 14.4062 51.7812 6.48438
Q45.5625 -1.42188 35.5938 -1.42188
Q29.5938 -1.42188 25.2656 0.953125
Q20.9531 3.32812 18.1094 8.20312
M48.6875 27.2969
Q48.6875 37.2031 44.6094 42.8438
Q40.5312 48.4844 33.4062 48.4844
Q26.2656 48.4844 22.1875 42.8438
Q18.1094 37.2031 18.1094 27.2969
Q18.1094 17.3906 22.1875 11.75
Q26.2656 6.10938 33.4062 6.10938
Q40.5312 6.10938 44.6094 11.75
Q48.6875 17.3906 48.6875 27.2969" id="BitstreamVeraSans-Roman-70"/>
     </defs>
     <g transform="translate(436.4145 88.23825)scale(0.144 -0.144)">
      <use xlink:href="#BitstreamVeraSans-Roman-6f"/>
      <use x="61.181640625" xlink:href="#BitstreamVeraSans-Roman-70"/>
      <use x="124.658203125" xlink:href="#BitstreamVeraSans-Roman-74"/>
      <use x="163.8671875" xlink:href="#BitstreamVeraSans-Roman-69"/>
      <use x="191.650390625" xlink:href="#BitstreamVeraSans-Roman-6d"/>
      <use x="289.0625" xlink:href="#BitstreamVeraSans-Roman-69"/>
      <use x="316.845703125" xlink:href="#BitstreamVeraSans-Roman-73"/>
      <use x="368.9453125" xlink:href="#BitstreamVeraSans-Roman-65"/>
      <use x="430.46875" xlink:href="#BitstreamVeraSans-Roman-64"/>
     </g>
    </g>
   </g>
  </g>
 </g>
 <defs>
  <clipPath id="p7ff5b81e1d">
   <rect height="345.6" width="446.4" x="72.0" y="43.2"/>
  </clipPath>
 </defs>
</svg>
